<?xml version="1.0" encoding="UTF-8" standalone="no"?>
<svg width="722px" height="347px" viewBox="0 0 722 347" version="1.1" xmlns="http://www.w3.org/2000/svg" xmlns:xlink="http://www.w3.org/1999/xlink">
    <!-- Generator: Sketch 39.1 (31720) - http://www.bohemiancoding.com/sketch -->
    <title>groupofpoops</title>
    <desc>Created with Sketch.</desc>
    <defs></defs>
    <g id="Page-1" stroke="none" stroke-width="1" fill="none" fill-rule="evenodd">
        <g id="Desktop-Copy" transform="translate(-357.000000, -1383.000000)" fill="#000000">
            <g id="groupofpoops" transform="translate(357.000000, 1382.000000)">
                <g id="poops" transform="translate(367.000000, 177.000000)">
                    <path d="M337.029696,12.1134377 C336.888749,11.790367 336.814156,11.4533767 336.814156,11.1069353 C336.814156,9.81882771 337.845346,8.66137531 339.48433,7.86426301 C339.286655,7.55968698 339.13931,7.23193083 339.04515,6.88557278 C338.903014,6.36274113 339.01153,4.47256319 340.271263,2.74217176 C341.530996,1.01178033 342.595499,0.798098477 343.247986,1.11248467 C343.711514,1.33582558 343.02241,2.08397437 343.247986,2.7421717 C343.458132,3.35535089 344.581702,4.14976465 345.016122,4.14976465 C348.313798,4.14976465 350.653297,4.41331964 350.653297,6.61921993 C350.653297,7.10066514 350.541856,7.54018307 350.333335,7.93314183 C351.891785,8.72731699 352.865155,9.85546155 352.865155,11.1069353 C352.865155,11.4779674 352.779597,11.8381592 352.618601,12.1820214 C353.822401,13.0444319 354.534459,14.1122981 354.534459,15.2685425 C354.534459,18.1326929 350.165202,20.4545455 344.775452,20.4545455 C339.385701,20.4545455 335.016444,18.1326929 335.016444,15.2685425 C335.016444,14.0814507 335.767003,12.9875157 337.029696,12.1134377 Z M303.643619,12.1134377 C303.502671,11.790367 303.428079,11.4533767 303.428079,11.1069353 C303.428079,9.81882771 304.459269,8.66137531 306.098253,7.86426301 C305.900578,7.55968698 305.753233,7.23193083 305.659073,6.88557278 C305.516937,6.36274113 305.625453,4.47256319 306.885186,2.74217176 C308.144919,1.01178033 309.209421,0.798098477 309.861908,1.11248467 C310.325437,1.33582558 309.636333,2.08397437 309.861908,2.7421717 C310.072055,3.35535089 311.195624,4.14976465 311.630044,4.14976465 C314.927721,4.14976465 317.26722,4.41331964 317.26722,6.61921993 C317.26722,7.10066514 317.155779,7.54018307 316.947258,7.93314183 C318.505708,8.72731699 319.479078,9.85546155 319.479078,11.1069353 C319.479078,11.4779674 319.39352,11.8381592 319.232524,12.1820214 C320.436324,13.0444319 321.148382,14.1122981 321.148382,15.2685425 C321.148382,18.1326929 316.779125,20.4545455 311.389374,20.4545455 C305.999623,20.4545455 301.630367,18.1326929 301.630367,15.2685425 C301.630367,14.0814507 302.380926,12.9875157 303.643619,12.1134377 Z M270.257541,12.1134377 C270.116594,11.790367 270.042002,11.4533767 270.042002,11.1069353 C270.042002,9.81882771 271.073192,8.66137531 272.712175,7.86426301 C272.514501,7.55968698 272.367156,7.23193083 272.272996,6.88557278 C272.13086,6.36274113 272.239376,4.47256319 273.499109,2.74217176 C274.758842,1.01178033 275.823344,0.798098477 276.475831,1.11248467 C276.93936,1.33582558 276.250256,2.08397437 276.475831,2.7421717 C276.685978,3.35535089 277.809547,4.14976465 278.243967,4.14976465 C281.541644,4.14976465 283.881143,4.41331964 283.881143,6.61921993 C283.881143,7.10066514 283.769702,7.54018307 283.561181,7.93314183 C285.11963,8.72731699 286.093,9.85546155 286.093,11.1069353 C286.093,11.4779674 286.007443,11.8381592 285.846447,12.1820214 C287.050246,13.0444319 287.762304,14.1122981 287.762304,15.2685425 C287.762304,18.1326929 283.393048,20.4545455 278.003297,20.4545455 C272.613546,20.4545455 268.24429,18.1326929 268.24429,15.2685425 C268.24429,14.0814507 268.994848,12.9875157 270.257541,12.1134377 Z M236.871464,12.1134377 C236.730517,11.790367 236.655924,11.4533767 236.655924,11.1069353 C236.655924,9.81882771 237.687115,8.66137531 239.326098,7.86426301 C239.128424,7.55968698 238.981078,7.23193083 238.886918,6.88557278 C238.744783,6.36274113 238.853298,4.47256319 240.113031,2.74217176 C241.372765,1.01178033 242.437267,0.798098477 243.089754,1.11248467 C243.553283,1.33582558 242.864179,2.08397437 243.089754,2.7421717 C243.2999,3.35535089 244.42347,4.14976465 244.85789,4.14976465 C248.155566,4.14976465 250.495065,4.41331964 250.495065,6.61921993 C250.495065,7.10066514 250.383624,7.54018307 250.175103,7.93314183 C251.733553,8.72731699 252.706923,9.85546155 252.706923,11.1069353 C252.706923,11.4779674 252.621366,11.8381592 252.46037,12.1820214 C253.664169,13.0444319 254.376227,14.1122981 254.376227,15.2685425 C254.376227,18.1326929 250.006971,20.4545455 244.61722,20.4545455 C239.227469,20.4545455 234.858213,18.1326929 234.858213,15.2685425 C234.858213,14.0814507 235.608771,12.9875157 236.871464,12.1134377 Z M203.485387,12.1134377 C203.34444,11.790367 203.269847,11.4533767 203.269847,11.1069353 C203.269847,9.81882771 204.301037,8.66137531 205.940021,7.86426301 C205.742346,7.55968698 205.595001,7.23193083 205.500841,6.88557278 C205.358706,6.36274113 205.467221,4.47256319 206.726954,2.74217176 C207.986687,1.01178033 209.05119,0.798098477 209.703677,1.11248467 C210.167205,1.33582558 209.478101,2.08397437 209.703677,2.7421717 C209.913823,3.35535089 211.037393,4.14976465 211.471813,4.14976465 C214.769489,4.14976465 217.108988,4.41331964 217.108988,6.61921993 C217.108988,7.10066514 216.997547,7.54018307 216.789026,7.93314183 C218.347476,8.72731699 219.320846,9.85546155 219.320846,11.1069353 C219.320846,11.4779674 219.235288,11.8381592 219.074292,12.1820214 C220.278092,13.0444319 220.99015,14.1122981 220.99015,15.2685425 C220.99015,18.1326929 216.620893,20.4545455 211.231143,20.4545455 C205.841392,20.4545455 201.472135,18.1326929 201.472135,15.2685425 C201.472135,14.0814507 202.222694,12.9875157 203.485387,12.1134377 Z M168.943638,12.1134377 C168.80269,11.790367 168.728098,11.4533767 168.728098,11.1069353 C168.728098,9.81882771 169.759288,8.66137531 171.398272,7.86426301 C171.200597,7.55968698 171.053252,7.23193083 170.959092,6.88557278 C170.816956,6.36274113 170.925472,4.47256319 172.185205,2.74217176 C173.444938,1.01178033 174.50944,0.798098477 175.161927,1.11248467 C175.625456,1.33582558 174.936352,2.08397437 175.161927,2.7421717 C175.372074,3.35535089 176.495644,4.14976465 176.930063,4.14976465 C180.22774,4.14976465 182.567239,4.41331964 182.567239,6.61921993 C182.567239,7.10066514 182.455798,7.54018307 182.247277,7.93314183 C183.805727,8.72731699 184.779097,9.85546155 184.779097,11.1069353 C184.779097,11.4779674 184.693539,11.8381592 184.532543,12.1820214 C185.736343,13.0444319 186.448401,14.1122981 186.448401,15.2685425 C186.448401,18.1326929 182.079144,20.4545455 176.689393,20.4545455 C171.299643,20.4545455 166.930386,18.1326929 166.930386,15.2685425 C166.930386,14.0814507 167.680945,12.9875157 168.943638,12.1134377 Z M135.557561,12.1134377 C135.416613,11.790367 135.342021,11.4533767 135.342021,11.1069353 C135.342021,9.81882771 136.373211,8.66137531 138.012194,7.86426301 C137.81452,7.55968698 137.667175,7.23193083 137.573015,6.88557278 C137.430879,6.36274113 137.539395,4.47256319 138.799128,2.74217176 C140.058861,1.01178033 141.123363,0.798098477 141.77585,1.11248467 C142.239379,1.33582558 141.550275,2.08397437 141.77585,2.7421717 C141.985997,3.35535089 143.109566,4.14976465 143.543986,4.14976465 C146.841663,4.14976465 149.181162,4.41331964 149.181162,6.61921993 C149.181162,7.10066514 149.069721,7.54018307 148.8612,7.93314183 C150.419649,8.72731699 151.39302,9.85546155 151.39302,11.1069353 C151.39302,11.4779674 151.307462,11.8381592 151.146466,12.1820214 C152.350266,13.0444319 153.062323,14.1122981 153.062323,15.2685425 C153.062323,18.1326929 148.693067,20.4545455 143.303316,20.4545455 C137.913565,20.4545455 133.544309,18.1326929 133.544309,15.2685425 C133.544309,14.0814507 134.294867,12.9875157 135.557561,12.1134377 Z M102.171483,12.1134377 C102.030536,11.790367 101.955944,11.4533767 101.955944,11.1069353 C101.955944,9.81882771 102.987134,8.66137531 104.626117,7.86426301 C104.428443,7.55968698 104.281097,7.23193083 104.186937,6.88557278 C104.044802,6.36274113 104.153317,4.47256319 105.413051,2.74217176 C106.672784,1.01178033 107.737286,0.798098477 108.389773,1.11248467 C108.853302,1.33582558 108.164198,2.08397437 108.389773,2.7421717 C108.59992,3.35535089 109.723489,4.14976465 110.157909,4.14976465 C113.455585,4.14976465 115.795085,4.41331964 115.795085,6.61921993 C115.795085,7.10066514 115.683644,7.54018307 115.475122,7.93314183 C117.033572,8.72731699 118.006942,9.85546155 118.006942,11.1069353 C118.006942,11.4779674 117.921385,11.8381592 117.760389,12.1820214 C118.964188,13.0444319 119.676246,14.1122981 119.676246,15.2685425 C119.676246,18.1326929 115.30699,20.4545455 109.917239,20.4545455 C104.527488,20.4545455 100.158232,18.1326929 100.158232,15.2685425 C100.158232,14.0814507 100.90879,12.9875157 102.171483,12.1134377 Z M68.7854061,12.1134377 C68.6444587,11.790367 68.5698663,11.4533767 68.5698663,11.1069353 C68.5698663,9.81882771 69.6010566,8.66137531 71.2400399,7.86426301 C71.0423654,7.55968698 70.8950202,7.23193083 70.8008602,6.88557278 C70.6587246,6.36274113 70.7672401,4.47256319 72.0269733,2.74217176 C73.2867065,1.01178033 74.3512087,0.798098477 75.0036958,1.11248467 C75.4672246,1.33582558 74.7781206,2.08397437 75.0036957,2.7421717 C75.2138424,3.35535089 76.3374119,4.14976465 76.7718316,4.14976465 C80.0695081,4.14976465 82.4090073,4.41331964 82.4090073,6.61921993 C82.4090073,7.10066514 82.2975663,7.54018307 82.0890452,7.93314183 C83.6474949,8.72731699 84.620865,9.85546155 84.620865,11.1069353 C84.620865,11.4779674 84.5353076,11.8381592 84.3743115,12.1820214 C85.5781111,13.0444319 86.2901689,14.1122981 86.2901689,15.2685425 C86.2901689,18.1326929 81.9209125,20.4545455 76.5311617,20.4545455 C71.1414108,20.4545455 66.7721545,18.1326929 66.7721545,15.2685425 C66.7721545,14.0814507 67.522713,12.9875157 68.7854061,12.1134377 Z M35.3993288,12.1134377 C35.2583814,11.790367 35.1837891,11.4533767 35.1837891,11.1069353 C35.1837891,9.81882771 36.2149794,8.66137531 37.8539627,7.86426301 C37.6562882,7.55968698 37.5089429,7.23193083 37.414783,6.88557278 C37.2726474,6.36274113 37.3811629,4.47256319 38.6408961,2.74217176 C39.9006293,1.01178033 40.9651314,0.798098477 41.6176185,1.11248467 C42.0811473,1.33582558 41.3920433,2.08397437 41.6176184,2.7421717 C41.8277651,3.35535089 42.9513346,4.14976465 43.3857544,4.14976465 C46.6834309,4.14976465 49.0229301,4.41331964 49.0229301,6.61921993 C49.0229301,7.10066514 48.9114891,7.54018307 48.7029679,7.93314183 C50.2614177,8.72731699 51.2347878,9.85546155 51.2347878,11.1069353 C51.2347878,11.4779674 51.1492303,11.8381592 50.9882342,12.1820214 C52.1920339,13.0444319 52.9040916,14.1122981 52.9040916,15.2685425 C52.9040916,18.1326929 48.5348353,20.4545455 43.1450844,20.4545455 C37.7553336,20.4545455 33.3860772,18.1326929 33.3860772,15.2685425 C33.3860772,14.0814507 34.1366357,12.9875157 35.3993288,12.1134377 Z M2.0132516,12.1134377 C1.87230417,11.790367 1.79771185,11.4533767 1.79771185,11.1069353 C1.79771185,9.81882771 2.82890211,8.66137531 4.46788544,7.86426301 C4.27021092,7.55968698 4.12286566,7.23193083 4.02870571,6.88557278 C3.88657013,6.36274113 3.99508565,4.47256319 5.25481884,2.74217176 C6.51455202,1.01178033 7.57905418,0.798098477 8.23154127,1.11248467 C8.69507007,1.33582558 8.00596606,2.08397437 8.2315412,2.7421717 C8.44168787,3.35535089 9.56525736,4.14976465 9.99967715,4.14976465 C13.2973537,4.14976465 15.6368528,4.41331964 15.6368528,6.61921993 C15.6368528,7.10066514 15.5254118,7.54018307 15.3168907,7.93314183 C16.8753404,8.72731699 17.8487105,9.85546155 17.8487105,11.1069353 C17.8487105,11.4779674 17.7631531,11.8381592 17.602157,12.1820214 C18.8059566,13.0444319 19.5180144,14.1122981 19.5180144,15.2685425 C19.5180144,18.1326929 15.148758,20.4545455 9.75900719,20.4545455 C4.36925635,20.4545455 0,18.1326929 0,15.2685425 C0,14.0814507 0.7505585,12.9875157 2.0132516,12.1134377 Z" id="Combined-Shape"></path>
                    <path d="M337.029696,62.1134377 C336.888749,61.790367 336.814156,61.4533767 336.814156,61.1069353 C336.814156,59.8188277 337.845346,58.6613753 339.48433,57.864263 C339.286655,57.559687 339.13931,57.2319308 339.04515,56.8855728 C338.903014,56.3627411 339.01153,54.4725632 340.271263,52.7421718 C341.530996,51.0117803 342.595499,50.7980985 343.247986,51.1124847 C343.711514,51.3358256 343.02241,52.0839744 343.247986,52.7421717 C343.458132,53.3553509 344.581702,54.1497647 345.016122,54.1497647 C348.313798,54.1497647 350.653297,54.4133196 350.653297,56.6192199 C350.653297,57.1006651 350.541856,57.5401831 350.333335,57.9331418 C351.891785,58.727317 352.865155,59.8554616 352.865155,61.1069353 C352.865155,61.4779674 352.779597,61.8381592 352.618601,62.1820214 C353.822401,63.0444319 354.534459,64.1122981 354.534459,65.2685425 C354.534459,68.1326929 350.165202,70.4545455 344.775452,70.4545455 C339.385701,70.4545455 335.016444,68.1326929 335.016444,65.2685425 C335.016444,64.0814507 335.767003,62.9875157 337.029696,62.1134377 Z M303.643619,62.1134377 C303.502671,61.790367 303.428079,61.4533767 303.428079,61.1069353 C303.428079,59.8188277 304.459269,58.6613753 306.098253,57.864263 C305.900578,57.559687 305.753233,57.2319308 305.659073,56.8855728 C305.516937,56.3627411 305.625453,54.4725632 306.885186,52.7421718 C308.144919,51.0117803 309.209421,50.7980985 309.861908,51.1124847 C310.325437,51.3358256 309.636333,52.0839744 309.861908,52.7421717 C310.072055,53.3553509 311.195624,54.1497647 311.630044,54.1497647 C314.927721,54.1497647 317.26722,54.4133196 317.26722,56.6192199 C317.26722,57.1006651 317.155779,57.5401831 316.947258,57.9331418 C318.505708,58.727317 319.479078,59.8554616 319.479078,61.1069353 C319.479078,61.4779674 319.39352,61.8381592 319.232524,62.1820214 C320.436324,63.0444319 321.148382,64.1122981 321.148382,65.2685425 C321.148382,68.1326929 316.779125,70.4545455 311.389374,70.4545455 C305.999623,70.4545455 301.630367,68.1326929 301.630367,65.2685425 C301.630367,64.0814507 302.380926,62.9875157 303.643619,62.1134377 Z M270.257541,62.1134377 C270.116594,61.790367 270.042002,61.4533767 270.042002,61.1069353 C270.042002,59.8188277 271.073192,58.6613753 272.712175,57.864263 C272.514501,57.559687 272.367156,57.2319308 272.272996,56.8855728 C272.13086,56.3627411 272.239376,54.4725632 273.499109,52.7421718 C274.758842,51.0117803 275.823344,50.7980985 276.475831,51.1124847 C276.93936,51.3358256 276.250256,52.0839744 276.475831,52.7421717 C276.685978,53.3553509 277.809547,54.1497647 278.243967,54.1497647 C281.541644,54.1497647 283.881143,54.4133196 283.881143,56.6192199 C283.881143,57.1006651 283.769702,57.5401831 283.561181,57.9331418 C285.11963,58.727317 286.093,59.8554616 286.093,61.1069353 C286.093,61.4779674 286.007443,61.8381592 285.846447,62.1820214 C287.050246,63.0444319 287.762304,64.1122981 287.762304,65.2685425 C287.762304,68.1326929 283.393048,70.4545455 278.003297,70.4545455 C272.613546,70.4545455 268.24429,68.1326929 268.24429,65.2685425 C268.24429,64.0814507 268.994848,62.9875157 270.257541,62.1134377 Z M236.871464,62.1134377 C236.730517,61.790367 236.655924,61.4533767 236.655924,61.1069353 C236.655924,59.8188277 237.687115,58.6613753 239.326098,57.864263 C239.128424,57.559687 238.981078,57.2319308 238.886918,56.8855728 C238.744783,56.3627411 238.853298,54.4725632 240.113031,52.7421718 C241.372765,51.0117803 242.437267,50.7980985 243.089754,51.1124847 C243.553283,51.3358256 242.864179,52.0839744 243.089754,52.7421717 C243.2999,53.3553509 244.42347,54.1497647 244.85789,54.1497647 C248.155566,54.1497647 250.495065,54.4133196 250.495065,56.6192199 C250.495065,57.1006651 250.383624,57.5401831 250.175103,57.9331418 C251.733553,58.727317 252.706923,59.8554616 252.706923,61.1069353 C252.706923,61.4779674 252.621366,61.8381592 252.46037,62.1820214 C253.664169,63.0444319 254.376227,64.1122981 254.376227,65.2685425 C254.376227,68.1326929 250.006971,70.4545455 244.61722,70.4545455 C239.227469,70.4545455 234.858213,68.1326929 234.858213,65.2685425 C234.858213,64.0814507 235.608771,62.9875157 236.871464,62.1134377 Z M203.485387,62.1134377 C203.34444,61.790367 203.269847,61.4533767 203.269847,61.1069353 C203.269847,59.8188277 204.301037,58.6613753 205.940021,57.864263 C205.742346,57.559687 205.595001,57.2319308 205.500841,56.8855728 C205.358706,56.3627411 205.467221,54.4725632 206.726954,52.7421718 C207.986687,51.0117803 209.05119,50.7980985 209.703677,51.1124847 C210.167205,51.3358256 209.478101,52.0839744 209.703677,52.7421717 C209.913823,53.3553509 211.037393,54.1497647 211.471813,54.1497647 C214.769489,54.1497647 217.108988,54.4133196 217.108988,56.6192199 C217.108988,57.1006651 216.997547,57.5401831 216.789026,57.9331418 C218.347476,58.727317 219.320846,59.8554616 219.320846,61.1069353 C219.320846,61.4779674 219.235288,61.8381592 219.074292,62.1820214 C220.278092,63.0444319 220.99015,64.1122981 220.99015,65.2685425 C220.99015,68.1326929 216.620893,70.4545455 211.231143,70.4545455 C205.841392,70.4545455 201.472135,68.1326929 201.472135,65.2685425 C201.472135,64.0814507 202.222694,62.9875157 203.485387,62.1134377 Z M168.943638,62.1134377 C168.80269,61.790367 168.728098,61.4533767 168.728098,61.1069353 C168.728098,59.8188277 169.759288,58.6613753 171.398272,57.864263 C171.200597,57.559687 171.053252,57.2319308 170.959092,56.8855728 C170.816956,56.3627411 170.925472,54.4725632 172.185205,52.7421718 C173.444938,51.0117803 174.50944,50.7980985 175.161927,51.1124847 C175.625456,51.3358256 174.936352,52.0839744 175.161927,52.7421717 C175.372074,53.3553509 176.495644,54.1497647 176.930063,54.1497647 C180.22774,54.1497647 182.567239,54.4133196 182.567239,56.6192199 C182.567239,57.1006651 182.455798,57.5401831 182.247277,57.9331418 C183.805727,58.727317 184.779097,59.8554616 184.779097,61.1069353 C184.779097,61.4779674 184.693539,61.8381592 184.532543,62.1820214 C185.736343,63.0444319 186.448401,64.1122981 186.448401,65.2685425 C186.448401,68.1326929 182.079144,70.4545455 176.689393,70.4545455 C171.299643,70.4545455 166.930386,68.1326929 166.930386,65.2685425 C166.930386,64.0814507 167.680945,62.9875157 168.943638,62.1134377 Z M135.557561,62.1134377 C135.416613,61.790367 135.342021,61.4533767 135.342021,61.1069353 C135.342021,59.8188277 136.373211,58.6613753 138.012194,57.864263 C137.81452,57.559687 137.667175,57.2319308 137.573015,56.8855728 C137.430879,56.3627411 137.539395,54.4725632 138.799128,52.7421718 C140.058861,51.0117803 141.123363,50.7980985 141.77585,51.1124847 C142.239379,51.3358256 141.550275,52.0839744 141.77585,52.7421717 C141.985997,53.3553509 143.109566,54.1497647 143.543986,54.1497647 C146.841663,54.1497647 149.181162,54.4133196 149.181162,56.6192199 C149.181162,57.1006651 149.069721,57.5401831 148.8612,57.9331418 C150.419649,58.727317 151.39302,59.8554616 151.39302,61.1069353 C151.39302,61.4779674 151.307462,61.8381592 151.146466,62.1820214 C152.350266,63.0444319 153.062323,64.1122981 153.062323,65.2685425 C153.062323,68.1326929 148.693067,70.4545455 143.303316,70.4545455 C137.913565,70.4545455 133.544309,68.1326929 133.544309,65.2685425 C133.544309,64.0814507 134.294867,62.9875157 135.557561,62.1134377 Z M102.171483,62.1134377 C102.030536,61.790367 101.955944,61.4533767 101.955944,61.1069353 C101.955944,59.8188277 102.987134,58.6613753 104.626117,57.864263 C104.428443,57.559687 104.281097,57.2319308 104.186937,56.8855728 C104.044802,56.3627411 104.153317,54.4725632 105.413051,52.7421718 C106.672784,51.0117803 107.737286,50.7980985 108.389773,51.1124847 C108.853302,51.3358256 108.164198,52.0839744 108.389773,52.7421717 C108.59992,53.3553509 109.723489,54.1497647 110.157909,54.1497647 C113.455585,54.1497647 115.795085,54.4133196 115.795085,56.6192199 C115.795085,57.1006651 115.683644,57.5401831 115.475122,57.9331418 C117.033572,58.727317 118.006942,59.8554616 118.006942,61.1069353 C118.006942,61.4779674 117.921385,61.8381592 117.760389,62.1820214 C118.964188,63.0444319 119.676246,64.1122981 119.676246,65.2685425 C119.676246,68.1326929 115.30699,70.4545455 109.917239,70.4545455 C104.527488,70.4545455 100.158232,68.1326929 100.158232,65.2685425 C100.158232,64.0814507 100.90879,62.9875157 102.171483,62.1134377 Z M68.7854061,62.1134377 C68.6444587,61.790367 68.5698663,61.4533767 68.5698663,61.1069353 C68.5698663,59.8188277 69.6010566,58.6613753 71.2400399,57.864263 C71.0423654,57.559687 70.8950202,57.2319308 70.8008602,56.8855728 C70.6587246,56.3627411 70.7672401,54.4725632 72.0269733,52.7421718 C73.2867065,51.0117803 74.3512087,50.7980985 75.0036958,51.1124847 C75.4672246,51.3358256 74.7781206,52.0839744 75.0036957,52.7421717 C75.2138424,53.3553509 76.3374119,54.1497647 76.7718316,54.1497647 C80.0695081,54.1497647 82.4090073,54.4133196 82.4090073,56.6192199 C82.4090073,57.1006651 82.2975663,57.5401831 82.0890452,57.9331418 C83.6474949,58.727317 84.620865,59.8554616 84.620865,61.1069353 C84.620865,61.4779674 84.5353076,61.8381592 84.3743115,62.1820214 C85.5781111,63.0444319 86.2901689,64.1122981 86.2901689,65.2685425 C86.2901689,68.1326929 81.9209125,70.4545455 76.5311617,70.4545455 C71.1414108,70.4545455 66.7721545,68.1326929 66.7721545,65.2685425 C66.7721545,64.0814507 67.522713,62.9875157 68.7854061,62.1134377 Z M35.3993288,62.1134377 C35.2583814,61.790367 35.1837891,61.4533767 35.1837891,61.1069353 C35.1837891,59.8188277 36.2149794,58.6613753 37.8539627,57.864263 C37.6562882,57.559687 37.5089429,57.2319308 37.414783,56.8855728 C37.2726474,56.3627411 37.3811629,54.4725632 38.6408961,52.7421718 C39.9006293,51.0117803 40.9651314,50.7980985 41.6176185,51.1124847 C42.0811473,51.3358256 41.3920433,52.0839744 41.6176184,52.7421717 C41.8277651,53.3553509 42.9513346,54.1497647 43.3857544,54.1497647 C46.6834309,54.1497647 49.0229301,54.4133196 49.0229301,56.6192199 C49.0229301,57.1006651 48.9114891,57.5401831 48.7029679,57.9331418 C50.2614177,58.727317 51.2347878,59.8554616 51.2347878,61.1069353 C51.2347878,61.4779674 51.1492303,61.8381592 50.9882342,62.1820214 C52.1920339,63.0444319 52.9040916,64.1122981 52.9040916,65.2685425 C52.9040916,68.1326929 48.5348353,70.4545455 43.1450844,70.4545455 C37.7553336,70.4545455 33.3860772,68.1326929 33.3860772,65.2685425 C33.3860772,64.0814507 34.1366357,62.9875157 35.3993288,62.1134377 Z M2.0132516,62.1134377 C1.87230417,61.790367 1.79771185,61.4533767 1.79771185,61.1069353 C1.79771185,59.8188277 2.82890211,58.6613753 4.46788544,57.864263 C4.27021092,57.559687 4.12286566,57.2319308 4.02870571,56.8855728 C3.88657013,56.3627411 3.99508565,54.4725632 5.25481884,52.7421718 C6.51455202,51.0117803 7.57905418,50.7980985 8.23154127,51.1124847 C8.69507007,51.3358256 8.00596606,52.0839744 8.2315412,52.7421717 C8.44168787,53.3553509 9.56525736,54.1497647 9.99967715,54.1497647 C13.2973537,54.1497647 15.6368528,54.4133196 15.6368528,56.6192199 C15.6368528,57.1006651 15.5254118,57.5401831 15.3168907,57.9331418 C16.8753404,58.727317 17.8487105,59.8554616 17.8487105,61.1069353 C17.8487105,61.4779674 17.7631531,61.8381592 17.602157,62.1820214 C18.8059566,63.0444319 19.5180144,64.1122981 19.5180144,65.2685425 C19.5180144,68.1326929 15.148758,70.4545455 9.75900719,70.4545455 C4.36925635,70.4545455 0,68.1326929 0,65.2685425 C0,64.0814507 0.7505585,62.9875157 2.0132516,62.1134377 Z" id="Combined-Shape"></path>
                    <path d="M337.029696,112.113438 C336.888749,111.790367 336.814156,111.453377 336.814156,111.106935 C336.814156,109.818828 337.845346,108.661375 339.48433,107.864263 C339.286655,107.559687 339.13931,107.231931 339.04515,106.885573 C338.903014,106.362741 339.01153,104.472563 340.271263,102.742172 C341.530996,101.01178 342.595499,100.798098 343.247986,101.112485 C343.711514,101.335826 343.02241,102.083974 343.247986,102.742172 C343.458132,103.355351 344.581702,104.149765 345.016122,104.149765 C348.313798,104.149765 350.653297,104.41332 350.653297,106.61922 C350.653297,107.100665 350.541856,107.540183 350.333335,107.933142 C351.891785,108.727317 352.865155,109.855462 352.865155,111.106935 C352.865155,111.477967 352.779597,111.838159 352.618601,112.182021 C353.822401,113.044432 354.534459,114.112298 354.534459,115.268543 C354.534459,118.132693 350.165202,120.454545 344.775452,120.454545 C339.385701,120.454545 335.016444,118.132693 335.016444,115.268543 C335.016444,114.081451 335.767003,112.987516 337.029696,112.113438 Z M303.643619,112.113438 C303.502671,111.790367 303.428079,111.453377 303.428079,111.106935 C303.428079,109.818828 304.459269,108.661375 306.098253,107.864263 C305.900578,107.559687 305.753233,107.231931 305.659073,106.885573 C305.516937,106.362741 305.625453,104.472563 306.885186,102.742172 C308.144919,101.01178 309.209421,100.798098 309.861908,101.112485 C310.325437,101.335826 309.636333,102.083974 309.861908,102.742172 C310.072055,103.355351 311.195624,104.149765 311.630044,104.149765 C314.927721,104.149765 317.26722,104.41332 317.26722,106.61922 C317.26722,107.100665 317.155779,107.540183 316.947258,107.933142 C318.505708,108.727317 319.479078,109.855462 319.479078,111.106935 C319.479078,111.477967 319.39352,111.838159 319.232524,112.182021 C320.436324,113.044432 321.148382,114.112298 321.148382,115.268543 C321.148382,118.132693 316.779125,120.454545 311.389374,120.454545 C305.999623,120.454545 301.630367,118.132693 301.630367,115.268543 C301.630367,114.081451 302.380926,112.987516 303.643619,112.113438 Z M270.257541,112.113438 C270.116594,111.790367 270.042002,111.453377 270.042002,111.106935 C270.042002,109.818828 271.073192,108.661375 272.712175,107.864263 C272.514501,107.559687 272.367156,107.231931 272.272996,106.885573 C272.13086,106.362741 272.239376,104.472563 273.499109,102.742172 C274.758842,101.01178 275.823344,100.798098 276.475831,101.112485 C276.93936,101.335826 276.250256,102.083974 276.475831,102.742172 C276.685978,103.355351 277.809547,104.149765 278.243967,104.149765 C281.541644,104.149765 283.881143,104.41332 283.881143,106.61922 C283.881143,107.100665 283.769702,107.540183 283.561181,107.933142 C285.11963,108.727317 286.093,109.855462 286.093,111.106935 C286.093,111.477967 286.007443,111.838159 285.846447,112.182021 C287.050246,113.044432 287.762304,114.112298 287.762304,115.268543 C287.762304,118.132693 283.393048,120.454545 278.003297,120.454545 C272.613546,120.454545 268.24429,118.132693 268.24429,115.268543 C268.24429,114.081451 268.994848,112.987516 270.257541,112.113438 Z M236.871464,112.113438 C236.730517,111.790367 236.655924,111.453377 236.655924,111.106935 C236.655924,109.818828 237.687115,108.661375 239.326098,107.864263 C239.128424,107.559687 238.981078,107.231931 238.886918,106.885573 C238.744783,106.362741 238.853298,104.472563 240.113031,102.742172 C241.372765,101.01178 242.437267,100.798098 243.089754,101.112485 C243.553283,101.335826 242.864179,102.083974 243.089754,102.742172 C243.2999,103.355351 244.42347,104.149765 244.85789,104.149765 C248.155566,104.149765 250.495065,104.41332 250.495065,106.61922 C250.495065,107.100665 250.383624,107.540183 250.175103,107.933142 C251.733553,108.727317 252.706923,109.855462 252.706923,111.106935 C252.706923,111.477967 252.621366,111.838159 252.46037,112.182021 C253.664169,113.044432 254.376227,114.112298 254.376227,115.268543 C254.376227,118.132693 250.006971,120.454545 244.61722,120.454545 C239.227469,120.454545 234.858213,118.132693 234.858213,115.268543 C234.858213,114.081451 235.608771,112.987516 236.871464,112.113438 Z M203.485387,112.113438 C203.34444,111.790367 203.269847,111.453377 203.269847,111.106935 C203.269847,109.818828 204.301037,108.661375 205.940021,107.864263 C205.742346,107.559687 205.595001,107.231931 205.500841,106.885573 C205.358706,106.362741 205.467221,104.472563 206.726954,102.742172 C207.986687,101.01178 209.05119,100.798098 209.703677,101.112485 C210.167205,101.335826 209.478101,102.083974 209.703677,102.742172 C209.913823,103.355351 211.037393,104.149765 211.471813,104.149765 C214.769489,104.149765 217.108988,104.41332 217.108988,106.61922 C217.108988,107.100665 216.997547,107.540183 216.789026,107.933142 C218.347476,108.727317 219.320846,109.855462 219.320846,111.106935 C219.320846,111.477967 219.235288,111.838159 219.074292,112.182021 C220.278092,113.044432 220.99015,114.112298 220.99015,115.268543 C220.99015,118.132693 216.620893,120.454545 211.231143,120.454545 C205.841392,120.454545 201.472135,118.132693 201.472135,115.268543 C201.472135,114.081451 202.222694,112.987516 203.485387,112.113438 Z M168.943638,112.113438 C168.80269,111.790367 168.728098,111.453377 168.728098,111.106935 C168.728098,109.818828 169.759288,108.661375 171.398272,107.864263 C171.200597,107.559687 171.053252,107.231931 170.959092,106.885573 C170.816956,106.362741 170.925472,104.472563 172.185205,102.742172 C173.444938,101.01178 174.50944,100.798098 175.161927,101.112485 C175.625456,101.335826 174.936352,102.083974 175.161927,102.742172 C175.372074,103.355351 176.495644,104.149765 176.930063,104.149765 C180.22774,104.149765 182.567239,104.41332 182.567239,106.61922 C182.567239,107.100665 182.455798,107.540183 182.247277,107.933142 C183.805727,108.727317 184.779097,109.855462 184.779097,111.106935 C184.779097,111.477967 184.693539,111.838159 184.532543,112.182021 C185.736343,113.044432 186.448401,114.112298 186.448401,115.268543 C186.448401,118.132693 182.079144,120.454545 176.689393,120.454545 C171.299643,120.454545 166.930386,118.132693 166.930386,115.268543 C166.930386,114.081451 167.680945,112.987516 168.943638,112.113438 Z M135.557561,112.113438 C135.416613,111.790367 135.342021,111.453377 135.342021,111.106935 C135.342021,109.818828 136.373211,108.661375 138.012194,107.864263 C137.81452,107.559687 137.667175,107.231931 137.573015,106.885573 C137.430879,106.362741 137.539395,104.472563 138.799128,102.742172 C140.058861,101.01178 141.123363,100.798098 141.77585,101.112485 C142.239379,101.335826 141.550275,102.083974 141.77585,102.742172 C141.985997,103.355351 143.109566,104.149765 143.543986,104.149765 C146.841663,104.149765 149.181162,104.41332 149.181162,106.61922 C149.181162,107.100665 149.069721,107.540183 148.8612,107.933142 C150.419649,108.727317 151.39302,109.855462 151.39302,111.106935 C151.39302,111.477967 151.307462,111.838159 151.146466,112.182021 C152.350266,113.044432 153.062323,114.112298 153.062323,115.268543 C153.062323,118.132693 148.693067,120.454545 143.303316,120.454545 C137.913565,120.454545 133.544309,118.132693 133.544309,115.268543 C133.544309,114.081451 134.294867,112.987516 135.557561,112.113438 Z M102.171483,112.113438 C102.030536,111.790367 101.955944,111.453377 101.955944,111.106935 C101.955944,109.818828 102.987134,108.661375 104.626117,107.864263 C104.428443,107.559687 104.281097,107.231931 104.186937,106.885573 C104.044802,106.362741 104.153317,104.472563 105.413051,102.742172 C106.672784,101.01178 107.737286,100.798098 108.389773,101.112485 C108.853302,101.335826 108.164198,102.083974 108.389773,102.742172 C108.59992,103.355351 109.723489,104.149765 110.157909,104.149765 C113.455585,104.149765 115.795085,104.41332 115.795085,106.61922 C115.795085,107.100665 115.683644,107.540183 115.475122,107.933142 C117.033572,108.727317 118.006942,109.855462 118.006942,111.106935 C118.006942,111.477967 117.921385,111.838159 117.760389,112.182021 C118.964188,113.044432 119.676246,114.112298 119.676246,115.268543 C119.676246,118.132693 115.30699,120.454545 109.917239,120.454545 C104.527488,120.454545 100.158232,118.132693 100.158232,115.268543 C100.158232,114.081451 100.90879,112.987516 102.171483,112.113438 Z M68.7854061,112.113438 C68.6444587,111.790367 68.5698663,111.453377 68.5698663,111.106935 C68.5698663,109.818828 69.6010566,108.661375 71.2400399,107.864263 C71.0423654,107.559687 70.8950202,107.231931 70.8008602,106.885573 C70.6587246,106.362741 70.7672401,104.472563 72.0269733,102.742172 C73.2867065,101.01178 74.3512087,100.798098 75.0036958,101.112485 C75.4672246,101.335826 74.7781206,102.083974 75.0036957,102.742172 C75.2138424,103.355351 76.3374119,104.149765 76.7718316,104.149765 C80.0695081,104.149765 82.4090073,104.41332 82.4090073,106.61922 C82.4090073,107.100665 82.2975663,107.540183 82.0890452,107.933142 C83.6474949,108.727317 84.620865,109.855462 84.620865,111.106935 C84.620865,111.477967 84.5353076,111.838159 84.3743115,112.182021 C85.5781111,113.044432 86.2901689,114.112298 86.2901689,115.268543 C86.2901689,118.132693 81.9209125,120.454545 76.5311617,120.454545 C71.1414108,120.454545 66.7721545,118.132693 66.7721545,115.268543 C66.7721545,114.081451 67.522713,112.987516 68.7854061,112.113438 Z M35.3993288,112.113438 C35.2583814,111.790367 35.1837891,111.453377 35.1837891,111.106935 C35.1837891,109.818828 36.2149794,108.661375 37.8539627,107.864263 C37.6562882,107.559687 37.5089429,107.231931 37.414783,106.885573 C37.2726474,106.362741 37.3811629,104.472563 38.6408961,102.742172 C39.9006293,101.01178 40.9651314,100.798098 41.6176185,101.112485 C42.0811473,101.335826 41.3920433,102.083974 41.6176184,102.742172 C41.8277651,103.355351 42.9513346,104.149765 43.3857544,104.149765 C46.6834309,104.149765 49.0229301,104.41332 49.0229301,106.61922 C49.0229301,107.100665 48.9114891,107.540183 48.7029679,107.933142 C50.2614177,108.727317 51.2347878,109.855462 51.2347878,111.106935 C51.2347878,111.477967 51.1492303,111.838159 50.9882342,112.182021 C52.1920339,113.044432 52.9040916,114.112298 52.9040916,115.268543 C52.9040916,118.132693 48.5348353,120.454545 43.1450844,120.454545 C37.7553336,120.454545 33.3860772,118.132693 33.3860772,115.268543 C33.3860772,114.081451 34.1366357,112.987516 35.3993288,112.113438 Z M2.0132516,112.113438 C1.87230417,111.790367 1.79771185,111.453377 1.79771185,111.106935 C1.79771185,109.818828 2.82890211,108.661375 4.46788544,107.864263 C4.27021092,107.559687 4.12286566,107.231931 4.02870571,106.885573 C3.88657013,106.362741 3.99508565,104.472563 5.25481884,102.742172 C6.51455202,101.01178 7.57905418,100.798098 8.23154127,101.112485 C8.69507007,101.335826 8.00596606,102.083974 8.2315412,102.742172 C8.44168787,103.355351 9.56525736,104.149765 9.99967715,104.149765 C13.2973537,104.149765 15.6368528,104.41332 15.6368528,106.61922 C15.6368528,107.100665 15.5254118,107.540183 15.3168907,107.933142 C16.8753404,108.727317 17.8487105,109.855462 17.8487105,111.106935 C17.8487105,111.477967 17.7631531,111.838159 17.602157,112.182021 C18.8059566,113.044432 19.5180144,114.112298 19.5180144,115.268543 C19.5180144,118.132693 15.148758,120.454545 9.75900719,120.454545 C4.36925635,120.454545 0,118.132693 0,115.268543 C0,114.081451 0.7505585,112.987516 2.0132516,112.113438 Z" id="Combined-Shape"></path>
                    <path d="M337.029696,162.113438 C336.888749,161.790367 336.814156,161.453377 336.814156,161.106935 C336.814156,159.818828 337.845346,158.661375 339.48433,157.864263 C339.286655,157.559687 339.13931,157.231931 339.04515,156.885573 C338.903014,156.362741 339.01153,154.472563 340.271263,152.742172 C341.530996,151.01178 342.595499,150.798098 343.247986,151.112485 C343.711514,151.335826 343.02241,152.083974 343.247986,152.742172 C343.458132,153.355351 344.581702,154.149765 345.016122,154.149765 C348.313798,154.149765 350.653297,154.41332 350.653297,156.61922 C350.653297,157.100665 350.541856,157.540183 350.333335,157.933142 C351.891785,158.727317 352.865155,159.855462 352.865155,161.106935 C352.865155,161.477967 352.779597,161.838159 352.618601,162.182021 C353.822401,163.044432 354.534459,164.112298 354.534459,165.268543 C354.534459,168.132693 350.165202,170.454545 344.775452,170.454545 C339.385701,170.454545 335.016444,168.132693 335.016444,165.268543 C335.016444,164.081451 335.767003,162.987516 337.029696,162.113438 Z M303.643619,162.113438 C303.502671,161.790367 303.428079,161.453377 303.428079,161.106935 C303.428079,159.818828 304.459269,158.661375 306.098253,157.864263 C305.900578,157.559687 305.753233,157.231931 305.659073,156.885573 C305.516937,156.362741 305.625453,154.472563 306.885186,152.742172 C308.144919,151.01178 309.209421,150.798098 309.861908,151.112485 C310.325437,151.335826 309.636333,152.083974 309.861908,152.742172 C310.072055,153.355351 311.195624,154.149765 311.630044,154.149765 C314.927721,154.149765 317.26722,154.41332 317.26722,156.61922 C317.26722,157.100665 317.155779,157.540183 316.947258,157.933142 C318.505708,158.727317 319.479078,159.855462 319.479078,161.106935 C319.479078,161.477967 319.39352,161.838159 319.232524,162.182021 C320.436324,163.044432 321.148382,164.112298 321.148382,165.268543 C321.148382,168.132693 316.779125,170.454545 311.389374,170.454545 C305.999623,170.454545 301.630367,168.132693 301.630367,165.268543 C301.630367,164.081451 302.380926,162.987516 303.643619,162.113438 Z M270.257541,162.113438 C270.116594,161.790367 270.042002,161.453377 270.042002,161.106935 C270.042002,159.818828 271.073192,158.661375 272.712175,157.864263 C272.514501,157.559687 272.367156,157.231931 272.272996,156.885573 C272.13086,156.362741 272.239376,154.472563 273.499109,152.742172 C274.758842,151.01178 275.823344,150.798098 276.475831,151.112485 C276.93936,151.335826 276.250256,152.083974 276.475831,152.742172 C276.685978,153.355351 277.809547,154.149765 278.243967,154.149765 C281.541644,154.149765 283.881143,154.41332 283.881143,156.61922 C283.881143,157.100665 283.769702,157.540183 283.561181,157.933142 C285.11963,158.727317 286.093,159.855462 286.093,161.106935 C286.093,161.477967 286.007443,161.838159 285.846447,162.182021 C287.050246,163.044432 287.762304,164.112298 287.762304,165.268543 C287.762304,168.132693 283.393048,170.454545 278.003297,170.454545 C272.613546,170.454545 268.24429,168.132693 268.24429,165.268543 C268.24429,164.081451 268.994848,162.987516 270.257541,162.113438 Z M236.871464,162.113438 C236.730517,161.790367 236.655924,161.453377 236.655924,161.106935 C236.655924,159.818828 237.687115,158.661375 239.326098,157.864263 C239.128424,157.559687 238.981078,157.231931 238.886918,156.885573 C238.744783,156.362741 238.853298,154.472563 240.113031,152.742172 C241.372765,151.01178 242.437267,150.798098 243.089754,151.112485 C243.553283,151.335826 242.864179,152.083974 243.089754,152.742172 C243.2999,153.355351 244.42347,154.149765 244.85789,154.149765 C248.155566,154.149765 250.495065,154.41332 250.495065,156.61922 C250.495065,157.100665 250.383624,157.540183 250.175103,157.933142 C251.733553,158.727317 252.706923,159.855462 252.706923,161.106935 C252.706923,161.477967 252.621366,161.838159 252.46037,162.182021 C253.664169,163.044432 254.376227,164.112298 254.376227,165.268543 C254.376227,168.132693 250.006971,170.454545 244.61722,170.454545 C239.227469,170.454545 234.858213,168.132693 234.858213,165.268543 C234.858213,164.081451 235.608771,162.987516 236.871464,162.113438 Z M203.485387,162.113438 C203.34444,161.790367 203.269847,161.453377 203.269847,161.106935 C203.269847,159.818828 204.301037,158.661375 205.940021,157.864263 C205.742346,157.559687 205.595001,157.231931 205.500841,156.885573 C205.358706,156.362741 205.467221,154.472563 206.726954,152.742172 C207.986687,151.01178 209.05119,150.798098 209.703677,151.112485 C210.167205,151.335826 209.478101,152.083974 209.703677,152.742172 C209.913823,153.355351 211.037393,154.149765 211.471813,154.149765 C214.769489,154.149765 217.108988,154.41332 217.108988,156.61922 C217.108988,157.100665 216.997547,157.540183 216.789026,157.933142 C218.347476,158.727317 219.320846,159.855462 219.320846,161.106935 C219.320846,161.477967 219.235288,161.838159 219.074292,162.182021 C220.278092,163.044432 220.99015,164.112298 220.99015,165.268543 C220.99015,168.132693 216.620893,170.454545 211.231143,170.454545 C205.841392,170.454545 201.472135,168.132693 201.472135,165.268543 C201.472135,164.081451 202.222694,162.987516 203.485387,162.113438 Z M168.943638,162.113438 C168.80269,161.790367 168.728098,161.453377 168.728098,161.106935 C168.728098,159.818828 169.759288,158.661375 171.398272,157.864263 C171.200597,157.559687 171.053252,157.231931 170.959092,156.885573 C170.816956,156.362741 170.925472,154.472563 172.185205,152.742172 C173.444938,151.01178 174.50944,150.798098 175.161927,151.112485 C175.625456,151.335826 174.936352,152.083974 175.161927,152.742172 C175.372074,153.355351 176.495644,154.149765 176.930063,154.149765 C180.22774,154.149765 182.567239,154.41332 182.567239,156.61922 C182.567239,157.100665 182.455798,157.540183 182.247277,157.933142 C183.805727,158.727317 184.779097,159.855462 184.779097,161.106935 C184.779097,161.477967 184.693539,161.838159 184.532543,162.182021 C185.736343,163.044432 186.448401,164.112298 186.448401,165.268543 C186.448401,168.132693 182.079144,170.454545 176.689393,170.454545 C171.299643,170.454545 166.930386,168.132693 166.930386,165.268543 C166.930386,164.081451 167.680945,162.987516 168.943638,162.113438 Z M135.557561,162.113438 C135.416613,161.790367 135.342021,161.453377 135.342021,161.106935 C135.342021,159.818828 136.373211,158.661375 138.012194,157.864263 C137.81452,157.559687 137.667175,157.231931 137.573015,156.885573 C137.430879,156.362741 137.539395,154.472563 138.799128,152.742172 C140.058861,151.01178 141.123363,150.798098 141.77585,151.112485 C142.239379,151.335826 141.550275,152.083974 141.77585,152.742172 C141.985997,153.355351 143.109566,154.149765 143.543986,154.149765 C146.841663,154.149765 149.181162,154.41332 149.181162,156.61922 C149.181162,157.100665 149.069721,157.540183 148.8612,157.933142 C150.419649,158.727317 151.39302,159.855462 151.39302,161.106935 C151.39302,161.477967 151.307462,161.838159 151.146466,162.182021 C152.350266,163.044432 153.062323,164.112298 153.062323,165.268543 C153.062323,168.132693 148.693067,170.454545 143.303316,170.454545 C137.913565,170.454545 133.544309,168.132693 133.544309,165.268543 C133.544309,164.081451 134.294867,162.987516 135.557561,162.113438 Z M102.171483,162.113438 C102.030536,161.790367 101.955944,161.453377 101.955944,161.106935 C101.955944,159.818828 102.987134,158.661375 104.626117,157.864263 C104.428443,157.559687 104.281097,157.231931 104.186937,156.885573 C104.044802,156.362741 104.153317,154.472563 105.413051,152.742172 C106.672784,151.01178 107.737286,150.798098 108.389773,151.112485 C108.853302,151.335826 108.164198,152.083974 108.389773,152.742172 C108.59992,153.355351 109.723489,154.149765 110.157909,154.149765 C113.455585,154.149765 115.795085,154.41332 115.795085,156.61922 C115.795085,157.100665 115.683644,157.540183 115.475122,157.933142 C117.033572,158.727317 118.006942,159.855462 118.006942,161.106935 C118.006942,161.477967 117.921385,161.838159 117.760389,162.182021 C118.964188,163.044432 119.676246,164.112298 119.676246,165.268543 C119.676246,168.132693 115.30699,170.454545 109.917239,170.454545 C104.527488,170.454545 100.158232,168.132693 100.158232,165.268543 C100.158232,164.081451 100.90879,162.987516 102.171483,162.113438 Z M68.7854061,162.113438 C68.6444587,161.790367 68.5698663,161.453377 68.5698663,161.106935 C68.5698663,159.818828 69.6010566,158.661375 71.2400399,157.864263 C71.0423654,157.559687 70.8950202,157.231931 70.8008602,156.885573 C70.6587246,156.362741 70.7672401,154.472563 72.0269733,152.742172 C73.2867065,151.01178 74.3512087,150.798098 75.0036958,151.112485 C75.4672246,151.335826 74.7781206,152.083974 75.0036957,152.742172 C75.2138424,153.355351 76.3374119,154.149765 76.7718316,154.149765 C80.0695081,154.149765 82.4090073,154.41332 82.4090073,156.61922 C82.4090073,157.100665 82.2975663,157.540183 82.0890452,157.933142 C83.6474949,158.727317 84.620865,159.855462 84.620865,161.106935 C84.620865,161.477967 84.5353076,161.838159 84.3743115,162.182021 C85.5781111,163.044432 86.2901689,164.112298 86.2901689,165.268543 C86.2901689,168.132693 81.9209125,170.454545 76.5311617,170.454545 C71.1414108,170.454545 66.7721545,168.132693 66.7721545,165.268543 C66.7721545,164.081451 67.522713,162.987516 68.7854061,162.113438 Z M35.3993288,162.113438 C35.2583814,161.790367 35.1837891,161.453377 35.1837891,161.106935 C35.1837891,159.818828 36.2149794,158.661375 37.8539627,157.864263 C37.6562882,157.559687 37.5089429,157.231931 37.414783,156.885573 C37.2726474,156.362741 37.3811629,154.472563 38.6408961,152.742172 C39.9006293,151.01178 40.9651314,150.798098 41.6176185,151.112485 C42.0811473,151.335826 41.3920433,152.083974 41.6176184,152.742172 C41.8277651,153.355351 42.9513346,154.149765 43.3857544,154.149765 C46.6834309,154.149765 49.0229301,154.41332 49.0229301,156.61922 C49.0229301,157.100665 48.9114891,157.540183 48.7029679,157.933142 C50.2614177,158.727317 51.2347878,159.855462 51.2347878,161.106935 C51.2347878,161.477967 51.1492303,161.838159 50.9882342,162.182021 C52.1920339,163.044432 52.9040916,164.112298 52.9040916,165.268543 C52.9040916,168.132693 48.5348353,170.454545 43.1450844,170.454545 C37.7553336,170.454545 33.3860772,168.132693 33.3860772,165.268543 C33.3860772,164.081451 34.1366357,162.987516 35.3993288,162.113438 Z M2.0132516,162.113438 C1.87230417,161.790367 1.79771185,161.453377 1.79771185,161.106935 C1.79771185,159.818828 2.82890211,158.661375 4.46788544,157.864263 C4.27021092,157.559687 4.12286566,157.231931 4.02870571,156.885573 C3.88657013,156.362741 3.99508565,154.472563 5.25481884,152.742172 C6.51455202,151.01178 7.57905418,150.798098 8.23154127,151.112485 C8.69507007,151.335826 8.00596606,152.083974 8.2315412,152.742172 C8.44168787,153.355351 9.56525736,154.149765 9.99967715,154.149765 C13.2973537,154.149765 15.6368528,154.41332 15.6368528,156.61922 C15.6368528,157.100665 15.5254118,157.540183 15.3168907,157.933142 C16.8753404,158.727317 17.8487105,159.855462 17.8487105,161.106935 C17.8487105,161.477967 17.7631531,161.838159 17.602157,162.182021 C18.8059566,163.044432 19.5180144,164.112298 19.5180144,165.268543 C19.5180144,168.132693 15.148758,170.454545 9.75900719,170.454545 C4.36925635,170.454545 0,168.132693 0,165.268543 C0,164.081451 0.7505585,162.987516 2.0132516,162.113438 Z" id="Combined-Shape"></path>
                </g>
                <g id="poops">
                    <path d="M337.029696,12.1134377 C336.888749,11.790367 336.814156,11.4533767 336.814156,11.1069353 C336.814156,9.81882771 337.845346,8.66137531 339.48433,7.86426301 C339.286655,7.55968698 339.13931,7.23193083 339.04515,6.88557278 C338.903014,6.36274113 339.01153,4.47256319 340.271263,2.74217176 C341.530996,1.01178033 342.595499,0.798098477 343.247986,1.11248467 C343.711514,1.33582558 343.02241,2.08397437 343.247986,2.7421717 C343.458132,3.35535089 344.581702,4.14976465 345.016122,4.14976465 C348.313798,4.14976465 350.653297,4.41331964 350.653297,6.61921993 C350.653297,7.10066514 350.541856,7.54018307 350.333335,7.93314183 C351.891785,8.72731699 352.865155,9.85546155 352.865155,11.1069353 C352.865155,11.4779674 352.779597,11.8381592 352.618601,12.1820214 C353.822401,13.0444319 354.534459,14.1122981 354.534459,15.2685425 C354.534459,18.1326929 350.165202,20.4545455 344.775452,20.4545455 C339.385701,20.4545455 335.016444,18.1326929 335.016444,15.2685425 C335.016444,14.0814507 335.767003,12.9875157 337.029696,12.1134377 Z M303.643619,12.1134377 C303.502671,11.790367 303.428079,11.4533767 303.428079,11.1069353 C303.428079,9.81882771 304.459269,8.66137531 306.098253,7.86426301 C305.900578,7.55968698 305.753233,7.23193083 305.659073,6.88557278 C305.516937,6.36274113 305.625453,4.47256319 306.885186,2.74217176 C308.144919,1.01178033 309.209421,0.798098477 309.861908,1.11248467 C310.325437,1.33582558 309.636333,2.08397437 309.861908,2.7421717 C310.072055,3.35535089 311.195624,4.14976465 311.630044,4.14976465 C314.927721,4.14976465 317.26722,4.41331964 317.26722,6.61921993 C317.26722,7.10066514 317.155779,7.54018307 316.947258,7.93314183 C318.505708,8.72731699 319.479078,9.85546155 319.479078,11.1069353 C319.479078,11.4779674 319.39352,11.8381592 319.232524,12.1820214 C320.436324,13.0444319 321.148382,14.1122981 321.148382,15.2685425 C321.148382,18.1326929 316.779125,20.4545455 311.389374,20.4545455 C305.999623,20.4545455 301.630367,18.1326929 301.630367,15.2685425 C301.630367,14.0814507 302.380926,12.9875157 303.643619,12.1134377 Z M270.257541,12.1134377 C270.116594,11.790367 270.042002,11.4533767 270.042002,11.1069353 C270.042002,9.81882771 271.073192,8.66137531 272.712175,7.86426301 C272.514501,7.55968698 272.367156,7.23193083 272.272996,6.88557278 C272.13086,6.36274113 272.239376,4.47256319 273.499109,2.74217176 C274.758842,1.01178033 275.823344,0.798098477 276.475831,1.11248467 C276.93936,1.33582558 276.250256,2.08397437 276.475831,2.7421717 C276.685978,3.35535089 277.809547,4.14976465 278.243967,4.14976465 C281.541644,4.14976465 283.881143,4.41331964 283.881143,6.61921993 C283.881143,7.10066514 283.769702,7.54018307 283.561181,7.93314183 C285.11963,8.72731699 286.093,9.85546155 286.093,11.1069353 C286.093,11.4779674 286.007443,11.8381592 285.846447,12.1820214 C287.050246,13.0444319 287.762304,14.1122981 287.762304,15.2685425 C287.762304,18.1326929 283.393048,20.4545455 278.003297,20.4545455 C272.613546,20.4545455 268.24429,18.1326929 268.24429,15.2685425 C268.24429,14.0814507 268.994848,12.9875157 270.257541,12.1134377 Z M236.871464,12.1134377 C236.730517,11.790367 236.655924,11.4533767 236.655924,11.1069353 C236.655924,9.81882771 237.687115,8.66137531 239.326098,7.86426301 C239.128424,7.55968698 238.981078,7.23193083 238.886918,6.88557278 C238.744783,6.36274113 238.853298,4.47256319 240.113031,2.74217176 C241.372765,1.01178033 242.437267,0.798098477 243.089754,1.11248467 C243.553283,1.33582558 242.864179,2.08397437 243.089754,2.7421717 C243.2999,3.35535089 244.42347,4.14976465 244.85789,4.14976465 C248.155566,4.14976465 250.495065,4.41331964 250.495065,6.61921993 C250.495065,7.10066514 250.383624,7.54018307 250.175103,7.93314183 C251.733553,8.72731699 252.706923,9.85546155 252.706923,11.1069353 C252.706923,11.4779674 252.621366,11.8381592 252.46037,12.1820214 C253.664169,13.0444319 254.376227,14.1122981 254.376227,15.2685425 C254.376227,18.1326929 250.006971,20.4545455 244.61722,20.4545455 C239.227469,20.4545455 234.858213,18.1326929 234.858213,15.2685425 C234.858213,14.0814507 235.608771,12.9875157 236.871464,12.1134377 Z M203.485387,12.1134377 C203.34444,11.790367 203.269847,11.4533767 203.269847,11.1069353 C203.269847,9.81882771 204.301037,8.66137531 205.940021,7.86426301 C205.742346,7.55968698 205.595001,7.23193083 205.500841,6.88557278 C205.358706,6.36274113 205.467221,4.47256319 206.726954,2.74217176 C207.986687,1.01178033 209.05119,0.798098477 209.703677,1.11248467 C210.167205,1.33582558 209.478101,2.08397437 209.703677,2.7421717 C209.913823,3.35535089 211.037393,4.14976465 211.471813,4.14976465 C214.769489,4.14976465 217.108988,4.41331964 217.108988,6.61921993 C217.108988,7.10066514 216.997547,7.54018307 216.789026,7.93314183 C218.347476,8.72731699 219.320846,9.85546155 219.320846,11.1069353 C219.320846,11.4779674 219.235288,11.8381592 219.074292,12.1820214 C220.278092,13.0444319 220.99015,14.1122981 220.99015,15.2685425 C220.99015,18.1326929 216.620893,20.4545455 211.231143,20.4545455 C205.841392,20.4545455 201.472135,18.1326929 201.472135,15.2685425 C201.472135,14.0814507 202.222694,12.9875157 203.485387,12.1134377 Z M168.943638,12.1134377 C168.80269,11.790367 168.728098,11.4533767 168.728098,11.1069353 C168.728098,9.81882771 169.759288,8.66137531 171.398272,7.86426301 C171.200597,7.55968698 171.053252,7.23193083 170.959092,6.88557278 C170.816956,6.36274113 170.925472,4.47256319 172.185205,2.74217176 C173.444938,1.01178033 174.50944,0.798098477 175.161927,1.11248467 C175.625456,1.33582558 174.936352,2.08397437 175.161927,2.7421717 C175.372074,3.35535089 176.495644,4.14976465 176.930063,4.14976465 C180.22774,4.14976465 182.567239,4.41331964 182.567239,6.61921993 C182.567239,7.10066514 182.455798,7.54018307 182.247277,7.93314183 C183.805727,8.72731699 184.779097,9.85546155 184.779097,11.1069353 C184.779097,11.4779674 184.693539,11.8381592 184.532543,12.1820214 C185.736343,13.0444319 186.448401,14.1122981 186.448401,15.2685425 C186.448401,18.1326929 182.079144,20.4545455 176.689393,20.4545455 C171.299643,20.4545455 166.930386,18.1326929 166.930386,15.2685425 C166.930386,14.0814507 167.680945,12.9875157 168.943638,12.1134377 Z M135.557561,12.1134377 C135.416613,11.790367 135.342021,11.4533767 135.342021,11.1069353 C135.342021,9.81882771 136.373211,8.66137531 138.012194,7.86426301 C137.81452,7.55968698 137.667175,7.23193083 137.573015,6.88557278 C137.430879,6.36274113 137.539395,4.47256319 138.799128,2.74217176 C140.058861,1.01178033 141.123363,0.798098477 141.77585,1.11248467 C142.239379,1.33582558 141.550275,2.08397437 141.77585,2.7421717 C141.985997,3.35535089 143.109566,4.14976465 143.543986,4.14976465 C146.841663,4.14976465 149.181162,4.41331964 149.181162,6.61921993 C149.181162,7.10066514 149.069721,7.54018307 148.8612,7.93314183 C150.419649,8.72731699 151.39302,9.85546155 151.39302,11.1069353 C151.39302,11.4779674 151.307462,11.8381592 151.146466,12.1820214 C152.350266,13.0444319 153.062323,14.1122981 153.062323,15.2685425 C153.062323,18.1326929 148.693067,20.4545455 143.303316,20.4545455 C137.913565,20.4545455 133.544309,18.1326929 133.544309,15.2685425 C133.544309,14.0814507 134.294867,12.9875157 135.557561,12.1134377 Z M102.171483,12.1134377 C102.030536,11.790367 101.955944,11.4533767 101.955944,11.1069353 C101.955944,9.81882771 102.987134,8.66137531 104.626117,7.86426301 C104.428443,7.55968698 104.281097,7.23193083 104.186937,6.88557278 C104.044802,6.36274113 104.153317,4.47256319 105.413051,2.74217176 C106.672784,1.01178033 107.737286,0.798098477 108.389773,1.11248467 C108.853302,1.33582558 108.164198,2.08397437 108.389773,2.7421717 C108.59992,3.35535089 109.723489,4.14976465 110.157909,4.14976465 C113.455585,4.14976465 115.795085,4.41331964 115.795085,6.61921993 C115.795085,7.10066514 115.683644,7.54018307 115.475122,7.93314183 C117.033572,8.72731699 118.006942,9.85546155 118.006942,11.1069353 C118.006942,11.4779674 117.921385,11.8381592 117.760389,12.1820214 C118.964188,13.0444319 119.676246,14.1122981 119.676246,15.2685425 C119.676246,18.1326929 115.30699,20.4545455 109.917239,20.4545455 C104.527488,20.4545455 100.158232,18.1326929 100.158232,15.2685425 C100.158232,14.0814507 100.90879,12.9875157 102.171483,12.1134377 Z M68.7854061,12.1134377 C68.6444587,11.790367 68.5698663,11.4533767 68.5698663,11.1069353 C68.5698663,9.81882771 69.6010566,8.66137531 71.2400399,7.86426301 C71.0423654,7.55968698 70.8950202,7.23193083 70.8008602,6.88557278 C70.6587246,6.36274113 70.7672401,4.47256319 72.0269733,2.74217176 C73.2867065,1.01178033 74.3512087,0.798098477 75.0036958,1.11248467 C75.4672246,1.33582558 74.7781206,2.08397437 75.0036957,2.7421717 C75.2138424,3.35535089 76.3374119,4.14976465 76.7718316,4.14976465 C80.0695081,4.14976465 82.4090073,4.41331964 82.4090073,6.61921993 C82.4090073,7.10066514 82.2975663,7.54018307 82.0890452,7.93314183 C83.6474949,8.72731699 84.620865,9.85546155 84.620865,11.1069353 C84.620865,11.4779674 84.5353076,11.8381592 84.3743115,12.1820214 C85.5781111,13.0444319 86.2901689,14.1122981 86.2901689,15.2685425 C86.2901689,18.1326929 81.9209125,20.4545455 76.5311617,20.4545455 C71.1414108,20.4545455 66.7721545,18.1326929 66.7721545,15.2685425 C66.7721545,14.0814507 67.522713,12.9875157 68.7854061,12.1134377 Z M35.3993288,12.1134377 C35.2583814,11.790367 35.1837891,11.4533767 35.1837891,11.1069353 C35.1837891,9.81882771 36.2149794,8.66137531 37.8539627,7.86426301 C37.6562882,7.55968698 37.5089429,7.23193083 37.414783,6.88557278 C37.2726474,6.36274113 37.3811629,4.47256319 38.6408961,2.74217176 C39.9006293,1.01178033 40.9651314,0.798098477 41.6176185,1.11248467 C42.0811473,1.33582558 41.3920433,2.08397437 41.6176184,2.7421717 C41.8277651,3.35535089 42.9513346,4.14976465 43.3857544,4.14976465 C46.6834309,4.14976465 49.0229301,4.41331964 49.0229301,6.61921993 C49.0229301,7.10066514 48.9114891,7.54018307 48.7029679,7.93314183 C50.2614177,8.72731699 51.2347878,9.85546155 51.2347878,11.1069353 C51.2347878,11.4779674 51.1492303,11.8381592 50.9882342,12.1820214 C52.1920339,13.0444319 52.9040916,14.1122981 52.9040916,15.2685425 C52.9040916,18.1326929 48.5348353,20.4545455 43.1450844,20.4545455 C37.7553336,20.4545455 33.3860772,18.1326929 33.3860772,15.2685425 C33.3860772,14.0814507 34.1366357,12.9875157 35.3993288,12.1134377 Z M2.0132516,12.1134377 C1.87230417,11.790367 1.79771185,11.4533767 1.79771185,11.1069353 C1.79771185,9.81882771 2.82890211,8.66137531 4.46788544,7.86426301 C4.27021092,7.55968698 4.12286566,7.23193083 4.02870571,6.88557278 C3.88657013,6.36274113 3.99508565,4.47256319 5.25481884,2.74217176 C6.51455202,1.01178033 7.57905418,0.798098477 8.23154127,1.11248467 C8.69507007,1.33582558 8.00596606,2.08397437 8.2315412,2.7421717 C8.44168787,3.35535089 9.56525736,4.14976465 9.99967715,4.14976465 C13.2973537,4.14976465 15.6368528,4.41331964 15.6368528,6.61921993 C15.6368528,7.10066514 15.5254118,7.54018307 15.3168907,7.93314183 C16.8753404,8.72731699 17.8487105,9.85546155 17.8487105,11.1069353 C17.8487105,11.4779674 17.7631531,11.8381592 17.602157,12.1820214 C18.8059566,13.0444319 19.5180144,14.1122981 19.5180144,15.2685425 C19.5180144,18.1326929 15.148758,20.4545455 9.75900719,20.4545455 C4.36925635,20.4545455 0,18.1326929 0,15.2685425 C0,14.0814507 0.7505585,12.9875157 2.0132516,12.1134377 Z" id="Combined-Shape"></path>
                    <path d="M337.029696,62.1134377 C336.888749,61.790367 336.814156,61.4533767 336.814156,61.1069353 C336.814156,59.8188277 337.845346,58.6613753 339.48433,57.864263 C339.286655,57.559687 339.13931,57.2319308 339.04515,56.8855728 C338.903014,56.3627411 339.01153,54.4725632 340.271263,52.7421718 C341.530996,51.0117803 342.595499,50.7980985 343.247986,51.1124847 C343.711514,51.3358256 343.02241,52.0839744 343.247986,52.7421717 C343.458132,53.3553509 344.581702,54.1497647 345.016122,54.1497647 C348.313798,54.1497647 350.653297,54.4133196 350.653297,56.6192199 C350.653297,57.1006651 350.541856,57.5401831 350.333335,57.9331418 C351.891785,58.727317 352.865155,59.8554616 352.865155,61.1069353 C352.865155,61.4779674 352.779597,61.8381592 352.618601,62.1820214 C353.822401,63.0444319 354.534459,64.1122981 354.534459,65.2685425 C354.534459,68.1326929 350.165202,70.4545455 344.775452,70.4545455 C339.385701,70.4545455 335.016444,68.1326929 335.016444,65.2685425 C335.016444,64.0814507 335.767003,62.9875157 337.029696,62.1134377 Z M303.643619,62.1134377 C303.502671,61.790367 303.428079,61.4533767 303.428079,61.1069353 C303.428079,59.8188277 304.459269,58.6613753 306.098253,57.864263 C305.900578,57.559687 305.753233,57.2319308 305.659073,56.8855728 C305.516937,56.3627411 305.625453,54.4725632 306.885186,52.7421718 C308.144919,51.0117803 309.209421,50.7980985 309.861908,51.1124847 C310.325437,51.3358256 309.636333,52.0839744 309.861908,52.7421717 C310.072055,53.3553509 311.195624,54.1497647 311.630044,54.1497647 C314.927721,54.1497647 317.26722,54.4133196 317.26722,56.6192199 C317.26722,57.1006651 317.155779,57.5401831 316.947258,57.9331418 C318.505708,58.727317 319.479078,59.8554616 319.479078,61.1069353 C319.479078,61.4779674 319.39352,61.8381592 319.232524,62.1820214 C320.436324,63.0444319 321.148382,64.1122981 321.148382,65.2685425 C321.148382,68.1326929 316.779125,70.4545455 311.389374,70.4545455 C305.999623,70.4545455 301.630367,68.1326929 301.630367,65.2685425 C301.630367,64.0814507 302.380926,62.9875157 303.643619,62.1134377 Z M270.257541,62.1134377 C270.116594,61.790367 270.042002,61.4533767 270.042002,61.1069353 C270.042002,59.8188277 271.073192,58.6613753 272.712175,57.864263 C272.514501,57.559687 272.367156,57.2319308 272.272996,56.8855728 C272.13086,56.3627411 272.239376,54.4725632 273.499109,52.7421718 C274.758842,51.0117803 275.823344,50.7980985 276.475831,51.1124847 C276.93936,51.3358256 276.250256,52.0839744 276.475831,52.7421717 C276.685978,53.3553509 277.809547,54.1497647 278.243967,54.1497647 C281.541644,54.1497647 283.881143,54.4133196 283.881143,56.6192199 C283.881143,57.1006651 283.769702,57.5401831 283.561181,57.9331418 C285.11963,58.727317 286.093,59.8554616 286.093,61.1069353 C286.093,61.4779674 286.007443,61.8381592 285.846447,62.1820214 C287.050246,63.0444319 287.762304,64.1122981 287.762304,65.2685425 C287.762304,68.1326929 283.393048,70.4545455 278.003297,70.4545455 C272.613546,70.4545455 268.24429,68.1326929 268.24429,65.2685425 C268.24429,64.0814507 268.994848,62.9875157 270.257541,62.1134377 Z M236.871464,62.1134377 C236.730517,61.790367 236.655924,61.4533767 236.655924,61.1069353 C236.655924,59.8188277 237.687115,58.6613753 239.326098,57.864263 C239.128424,57.559687 238.981078,57.2319308 238.886918,56.8855728 C238.744783,56.3627411 238.853298,54.4725632 240.113031,52.7421718 C241.372765,51.0117803 242.437267,50.7980985 243.089754,51.1124847 C243.553283,51.3358256 242.864179,52.0839744 243.089754,52.7421717 C243.2999,53.3553509 244.42347,54.1497647 244.85789,54.1497647 C248.155566,54.1497647 250.495065,54.4133196 250.495065,56.6192199 C250.495065,57.1006651 250.383624,57.5401831 250.175103,57.9331418 C251.733553,58.727317 252.706923,59.8554616 252.706923,61.1069353 C252.706923,61.4779674 252.621366,61.8381592 252.46037,62.1820214 C253.664169,63.0444319 254.376227,64.1122981 254.376227,65.2685425 C254.376227,68.1326929 250.006971,70.4545455 244.61722,70.4545455 C239.227469,70.4545455 234.858213,68.1326929 234.858213,65.2685425 C234.858213,64.0814507 235.608771,62.9875157 236.871464,62.1134377 Z M203.485387,62.1134377 C203.34444,61.790367 203.269847,61.4533767 203.269847,61.1069353 C203.269847,59.8188277 204.301037,58.6613753 205.940021,57.864263 C205.742346,57.559687 205.595001,57.2319308 205.500841,56.8855728 C205.358706,56.3627411 205.467221,54.4725632 206.726954,52.7421718 C207.986687,51.0117803 209.05119,50.7980985 209.703677,51.1124847 C210.167205,51.3358256 209.478101,52.0839744 209.703677,52.7421717 C209.913823,53.3553509 211.037393,54.1497647 211.471813,54.1497647 C214.769489,54.1497647 217.108988,54.4133196 217.108988,56.6192199 C217.108988,57.1006651 216.997547,57.5401831 216.789026,57.9331418 C218.347476,58.727317 219.320846,59.8554616 219.320846,61.1069353 C219.320846,61.4779674 219.235288,61.8381592 219.074292,62.1820214 C220.278092,63.0444319 220.99015,64.1122981 220.99015,65.2685425 C220.99015,68.1326929 216.620893,70.4545455 211.231143,70.4545455 C205.841392,70.4545455 201.472135,68.1326929 201.472135,65.2685425 C201.472135,64.0814507 202.222694,62.9875157 203.485387,62.1134377 Z M168.943638,62.1134377 C168.80269,61.790367 168.728098,61.4533767 168.728098,61.1069353 C168.728098,59.8188277 169.759288,58.6613753 171.398272,57.864263 C171.200597,57.559687 171.053252,57.2319308 170.959092,56.8855728 C170.816956,56.3627411 170.925472,54.4725632 172.185205,52.7421718 C173.444938,51.0117803 174.50944,50.7980985 175.161927,51.1124847 C175.625456,51.3358256 174.936352,52.0839744 175.161927,52.7421717 C175.372074,53.3553509 176.495644,54.1497647 176.930063,54.1497647 C180.22774,54.1497647 182.567239,54.4133196 182.567239,56.6192199 C182.567239,57.1006651 182.455798,57.5401831 182.247277,57.9331418 C183.805727,58.727317 184.779097,59.8554616 184.779097,61.1069353 C184.779097,61.4779674 184.693539,61.8381592 184.532543,62.1820214 C185.736343,63.0444319 186.448401,64.1122981 186.448401,65.2685425 C186.448401,68.1326929 182.079144,70.4545455 176.689393,70.4545455 C171.299643,70.4545455 166.930386,68.1326929 166.930386,65.2685425 C166.930386,64.0814507 167.680945,62.9875157 168.943638,62.1134377 Z M135.557561,62.1134377 C135.416613,61.790367 135.342021,61.4533767 135.342021,61.1069353 C135.342021,59.8188277 136.373211,58.6613753 138.012194,57.864263 C137.81452,57.559687 137.667175,57.2319308 137.573015,56.8855728 C137.430879,56.3627411 137.539395,54.4725632 138.799128,52.7421718 C140.058861,51.0117803 141.123363,50.7980985 141.77585,51.1124847 C142.239379,51.3358256 141.550275,52.0839744 141.77585,52.7421717 C141.985997,53.3553509 143.109566,54.1497647 143.543986,54.1497647 C146.841663,54.1497647 149.181162,54.4133196 149.181162,56.6192199 C149.181162,57.1006651 149.069721,57.5401831 148.8612,57.9331418 C150.419649,58.727317 151.39302,59.8554616 151.39302,61.1069353 C151.39302,61.4779674 151.307462,61.8381592 151.146466,62.1820214 C152.350266,63.0444319 153.062323,64.1122981 153.062323,65.2685425 C153.062323,68.1326929 148.693067,70.4545455 143.303316,70.4545455 C137.913565,70.4545455 133.544309,68.1326929 133.544309,65.2685425 C133.544309,64.0814507 134.294867,62.9875157 135.557561,62.1134377 Z M102.171483,62.1134377 C102.030536,61.790367 101.955944,61.4533767 101.955944,61.1069353 C101.955944,59.8188277 102.987134,58.6613753 104.626117,57.864263 C104.428443,57.559687 104.281097,57.2319308 104.186937,56.8855728 C104.044802,56.3627411 104.153317,54.4725632 105.413051,52.7421718 C106.672784,51.0117803 107.737286,50.7980985 108.389773,51.1124847 C108.853302,51.3358256 108.164198,52.0839744 108.389773,52.7421717 C108.59992,53.3553509 109.723489,54.1497647 110.157909,54.1497647 C113.455585,54.1497647 115.795085,54.4133196 115.795085,56.6192199 C115.795085,57.1006651 115.683644,57.5401831 115.475122,57.9331418 C117.033572,58.727317 118.006942,59.8554616 118.006942,61.1069353 C118.006942,61.4779674 117.921385,61.8381592 117.760389,62.1820214 C118.964188,63.0444319 119.676246,64.1122981 119.676246,65.2685425 C119.676246,68.1326929 115.30699,70.4545455 109.917239,70.4545455 C104.527488,70.4545455 100.158232,68.1326929 100.158232,65.2685425 C100.158232,64.0814507 100.90879,62.9875157 102.171483,62.1134377 Z M68.7854061,62.1134377 C68.6444587,61.790367 68.5698663,61.4533767 68.5698663,61.1069353 C68.5698663,59.8188277 69.6010566,58.6613753 71.2400399,57.864263 C71.0423654,57.559687 70.8950202,57.2319308 70.8008602,56.8855728 C70.6587246,56.3627411 70.7672401,54.4725632 72.0269733,52.7421718 C73.2867065,51.0117803 74.3512087,50.7980985 75.0036958,51.1124847 C75.4672246,51.3358256 74.7781206,52.0839744 75.0036957,52.7421717 C75.2138424,53.3553509 76.3374119,54.1497647 76.7718316,54.1497647 C80.0695081,54.1497647 82.4090073,54.4133196 82.4090073,56.6192199 C82.4090073,57.1006651 82.2975663,57.5401831 82.0890452,57.9331418 C83.6474949,58.727317 84.620865,59.8554616 84.620865,61.1069353 C84.620865,61.4779674 84.5353076,61.8381592 84.3743115,62.1820214 C85.5781111,63.0444319 86.2901689,64.1122981 86.2901689,65.2685425 C86.2901689,68.1326929 81.9209125,70.4545455 76.5311617,70.4545455 C71.1414108,70.4545455 66.7721545,68.1326929 66.7721545,65.2685425 C66.7721545,64.0814507 67.522713,62.9875157 68.7854061,62.1134377 Z M35.3993288,62.1134377 C35.2583814,61.790367 35.1837891,61.4533767 35.1837891,61.1069353 C35.1837891,59.8188277 36.2149794,58.6613753 37.8539627,57.864263 C37.6562882,57.559687 37.5089429,57.2319308 37.414783,56.8855728 C37.2726474,56.3627411 37.3811629,54.4725632 38.6408961,52.7421718 C39.9006293,51.0117803 40.9651314,50.7980985 41.6176185,51.1124847 C42.0811473,51.3358256 41.3920433,52.0839744 41.6176184,52.7421717 C41.8277651,53.3553509 42.9513346,54.1497647 43.3857544,54.1497647 C46.6834309,54.1497647 49.0229301,54.4133196 49.0229301,56.6192199 C49.0229301,57.1006651 48.9114891,57.5401831 48.7029679,57.9331418 C50.2614177,58.727317 51.2347878,59.8554616 51.2347878,61.1069353 C51.2347878,61.4779674 51.1492303,61.8381592 50.9882342,62.1820214 C52.1920339,63.0444319 52.9040916,64.1122981 52.9040916,65.2685425 C52.9040916,68.1326929 48.5348353,70.4545455 43.1450844,70.4545455 C37.7553336,70.4545455 33.3860772,68.1326929 33.3860772,65.2685425 C33.3860772,64.0814507 34.1366357,62.9875157 35.3993288,62.1134377 Z M2.0132516,62.1134377 C1.87230417,61.790367 1.79771185,61.4533767 1.79771185,61.1069353 C1.79771185,59.8188277 2.82890211,58.6613753 4.46788544,57.864263 C4.27021092,57.559687 4.12286566,57.2319308 4.02870571,56.8855728 C3.88657013,56.3627411 3.99508565,54.4725632 5.25481884,52.7421718 C6.51455202,51.0117803 7.57905418,50.7980985 8.23154127,51.1124847 C8.69507007,51.3358256 8.00596606,52.0839744 8.2315412,52.7421717 C8.44168787,53.3553509 9.56525736,54.1497647 9.99967715,54.1497647 C13.2973537,54.1497647 15.6368528,54.4133196 15.6368528,56.6192199 C15.6368528,57.1006651 15.5254118,57.5401831 15.3168907,57.9331418 C16.8753404,58.727317 17.8487105,59.8554616 17.8487105,61.1069353 C17.8487105,61.4779674 17.7631531,61.8381592 17.602157,62.1820214 C18.8059566,63.0444319 19.5180144,64.1122981 19.5180144,65.2685425 C19.5180144,68.1326929 15.148758,70.4545455 9.75900719,70.4545455 C4.36925635,70.4545455 0,68.1326929 0,65.2685425 C0,64.0814507 0.7505585,62.9875157 2.0132516,62.1134377 Z" id="Combined-Shape"></path>
                    <path d="M337.029696,112.113438 C336.888749,111.790367 336.814156,111.453377 336.814156,111.106935 C336.814156,109.818828 337.845346,108.661375 339.48433,107.864263 C339.286655,107.559687 339.13931,107.231931 339.04515,106.885573 C338.903014,106.362741 339.01153,104.472563 340.271263,102.742172 C341.530996,101.01178 342.595499,100.798098 343.247986,101.112485 C343.711514,101.335826 343.02241,102.083974 343.247986,102.742172 C343.458132,103.355351 344.581702,104.149765 345.016122,104.149765 C348.313798,104.149765 350.653297,104.41332 350.653297,106.61922 C350.653297,107.100665 350.541856,107.540183 350.333335,107.933142 C351.891785,108.727317 352.865155,109.855462 352.865155,111.106935 C352.865155,111.477967 352.779597,111.838159 352.618601,112.182021 C353.822401,113.044432 354.534459,114.112298 354.534459,115.268543 C354.534459,118.132693 350.165202,120.454545 344.775452,120.454545 C339.385701,120.454545 335.016444,118.132693 335.016444,115.268543 C335.016444,114.081451 335.767003,112.987516 337.029696,112.113438 Z M303.643619,112.113438 C303.502671,111.790367 303.428079,111.453377 303.428079,111.106935 C303.428079,109.818828 304.459269,108.661375 306.098253,107.864263 C305.900578,107.559687 305.753233,107.231931 305.659073,106.885573 C305.516937,106.362741 305.625453,104.472563 306.885186,102.742172 C308.144919,101.01178 309.209421,100.798098 309.861908,101.112485 C310.325437,101.335826 309.636333,102.083974 309.861908,102.742172 C310.072055,103.355351 311.195624,104.149765 311.630044,104.149765 C314.927721,104.149765 317.26722,104.41332 317.26722,106.61922 C317.26722,107.100665 317.155779,107.540183 316.947258,107.933142 C318.505708,108.727317 319.479078,109.855462 319.479078,111.106935 C319.479078,111.477967 319.39352,111.838159 319.232524,112.182021 C320.436324,113.044432 321.148382,114.112298 321.148382,115.268543 C321.148382,118.132693 316.779125,120.454545 311.389374,120.454545 C305.999623,120.454545 301.630367,118.132693 301.630367,115.268543 C301.630367,114.081451 302.380926,112.987516 303.643619,112.113438 Z M270.257541,112.113438 C270.116594,111.790367 270.042002,111.453377 270.042002,111.106935 C270.042002,109.818828 271.073192,108.661375 272.712175,107.864263 C272.514501,107.559687 272.367156,107.231931 272.272996,106.885573 C272.13086,106.362741 272.239376,104.472563 273.499109,102.742172 C274.758842,101.01178 275.823344,100.798098 276.475831,101.112485 C276.93936,101.335826 276.250256,102.083974 276.475831,102.742172 C276.685978,103.355351 277.809547,104.149765 278.243967,104.149765 C281.541644,104.149765 283.881143,104.41332 283.881143,106.61922 C283.881143,107.100665 283.769702,107.540183 283.561181,107.933142 C285.11963,108.727317 286.093,109.855462 286.093,111.106935 C286.093,111.477967 286.007443,111.838159 285.846447,112.182021 C287.050246,113.044432 287.762304,114.112298 287.762304,115.268543 C287.762304,118.132693 283.393048,120.454545 278.003297,120.454545 C272.613546,120.454545 268.24429,118.132693 268.24429,115.268543 C268.24429,114.081451 268.994848,112.987516 270.257541,112.113438 Z M236.871464,112.113438 C236.730517,111.790367 236.655924,111.453377 236.655924,111.106935 C236.655924,109.818828 237.687115,108.661375 239.326098,107.864263 C239.128424,107.559687 238.981078,107.231931 238.886918,106.885573 C238.744783,106.362741 238.853298,104.472563 240.113031,102.742172 C241.372765,101.01178 242.437267,100.798098 243.089754,101.112485 C243.553283,101.335826 242.864179,102.083974 243.089754,102.742172 C243.2999,103.355351 244.42347,104.149765 244.85789,104.149765 C248.155566,104.149765 250.495065,104.41332 250.495065,106.61922 C250.495065,107.100665 250.383624,107.540183 250.175103,107.933142 C251.733553,108.727317 252.706923,109.855462 252.706923,111.106935 C252.706923,111.477967 252.621366,111.838159 252.46037,112.182021 C253.664169,113.044432 254.376227,114.112298 254.376227,115.268543 C254.376227,118.132693 250.006971,120.454545 244.61722,120.454545 C239.227469,120.454545 234.858213,118.132693 234.858213,115.268543 C234.858213,114.081451 235.608771,112.987516 236.871464,112.113438 Z M203.485387,112.113438 C203.34444,111.790367 203.269847,111.453377 203.269847,111.106935 C203.269847,109.818828 204.301037,108.661375 205.940021,107.864263 C205.742346,107.559687 205.595001,107.231931 205.500841,106.885573 C205.358706,106.362741 205.467221,104.472563 206.726954,102.742172 C207.986687,101.01178 209.05119,100.798098 209.703677,101.112485 C210.167205,101.335826 209.478101,102.083974 209.703677,102.742172 C209.913823,103.355351 211.037393,104.149765 211.471813,104.149765 C214.769489,104.149765 217.108988,104.41332 217.108988,106.61922 C217.108988,107.100665 216.997547,107.540183 216.789026,107.933142 C218.347476,108.727317 219.320846,109.855462 219.320846,111.106935 C219.320846,111.477967 219.235288,111.838159 219.074292,112.182021 C220.278092,113.044432 220.99015,114.112298 220.99015,115.268543 C220.99015,118.132693 216.620893,120.454545 211.231143,120.454545 C205.841392,120.454545 201.472135,118.132693 201.472135,115.268543 C201.472135,114.081451 202.222694,112.987516 203.485387,112.113438 Z M168.943638,112.113438 C168.80269,111.790367 168.728098,111.453377 168.728098,111.106935 C168.728098,109.818828 169.759288,108.661375 171.398272,107.864263 C171.200597,107.559687 171.053252,107.231931 170.959092,106.885573 C170.816956,106.362741 170.925472,104.472563 172.185205,102.742172 C173.444938,101.01178 174.50944,100.798098 175.161927,101.112485 C175.625456,101.335826 174.936352,102.083974 175.161927,102.742172 C175.372074,103.355351 176.495644,104.149765 176.930063,104.149765 C180.22774,104.149765 182.567239,104.41332 182.567239,106.61922 C182.567239,107.100665 182.455798,107.540183 182.247277,107.933142 C183.805727,108.727317 184.779097,109.855462 184.779097,111.106935 C184.779097,111.477967 184.693539,111.838159 184.532543,112.182021 C185.736343,113.044432 186.448401,114.112298 186.448401,115.268543 C186.448401,118.132693 182.079144,120.454545 176.689393,120.454545 C171.299643,120.454545 166.930386,118.132693 166.930386,115.268543 C166.930386,114.081451 167.680945,112.987516 168.943638,112.113438 Z M135.557561,112.113438 C135.416613,111.790367 135.342021,111.453377 135.342021,111.106935 C135.342021,109.818828 136.373211,108.661375 138.012194,107.864263 C137.81452,107.559687 137.667175,107.231931 137.573015,106.885573 C137.430879,106.362741 137.539395,104.472563 138.799128,102.742172 C140.058861,101.01178 141.123363,100.798098 141.77585,101.112485 C142.239379,101.335826 141.550275,102.083974 141.77585,102.742172 C141.985997,103.355351 143.109566,104.149765 143.543986,104.149765 C146.841663,104.149765 149.181162,104.41332 149.181162,106.61922 C149.181162,107.100665 149.069721,107.540183 148.8612,107.933142 C150.419649,108.727317 151.39302,109.855462 151.39302,111.106935 C151.39302,111.477967 151.307462,111.838159 151.146466,112.182021 C152.350266,113.044432 153.062323,114.112298 153.062323,115.268543 C153.062323,118.132693 148.693067,120.454545 143.303316,120.454545 C137.913565,120.454545 133.544309,118.132693 133.544309,115.268543 C133.544309,114.081451 134.294867,112.987516 135.557561,112.113438 Z M102.171483,112.113438 C102.030536,111.790367 101.955944,111.453377 101.955944,111.106935 C101.955944,109.818828 102.987134,108.661375 104.626117,107.864263 C104.428443,107.559687 104.281097,107.231931 104.186937,106.885573 C104.044802,106.362741 104.153317,104.472563 105.413051,102.742172 C106.672784,101.01178 107.737286,100.798098 108.389773,101.112485 C108.853302,101.335826 108.164198,102.083974 108.389773,102.742172 C108.59992,103.355351 109.723489,104.149765 110.157909,104.149765 C113.455585,104.149765 115.795085,104.41332 115.795085,106.61922 C115.795085,107.100665 115.683644,107.540183 115.475122,107.933142 C117.033572,108.727317 118.006942,109.855462 118.006942,111.106935 C118.006942,111.477967 117.921385,111.838159 117.760389,112.182021 C118.964188,113.044432 119.676246,114.112298 119.676246,115.268543 C119.676246,118.132693 115.30699,120.454545 109.917239,120.454545 C104.527488,120.454545 100.158232,118.132693 100.158232,115.268543 C100.158232,114.081451 100.90879,112.987516 102.171483,112.113438 Z M68.7854061,112.113438 C68.6444587,111.790367 68.5698663,111.453377 68.5698663,111.106935 C68.5698663,109.818828 69.6010566,108.661375 71.2400399,107.864263 C71.0423654,107.559687 70.8950202,107.231931 70.8008602,106.885573 C70.6587246,106.362741 70.7672401,104.472563 72.0269733,102.742172 C73.2867065,101.01178 74.3512087,100.798098 75.0036958,101.112485 C75.4672246,101.335826 74.7781206,102.083974 75.0036957,102.742172 C75.2138424,103.355351 76.3374119,104.149765 76.7718316,104.149765 C80.0695081,104.149765 82.4090073,104.41332 82.4090073,106.61922 C82.4090073,107.100665 82.2975663,107.540183 82.0890452,107.933142 C83.6474949,108.727317 84.620865,109.855462 84.620865,111.106935 C84.620865,111.477967 84.5353076,111.838159 84.3743115,112.182021 C85.5781111,113.044432 86.2901689,114.112298 86.2901689,115.268543 C86.2901689,118.132693 81.9209125,120.454545 76.5311617,120.454545 C71.1414108,120.454545 66.7721545,118.132693 66.7721545,115.268543 C66.7721545,114.081451 67.522713,112.987516 68.7854061,112.113438 Z M35.3993288,112.113438 C35.2583814,111.790367 35.1837891,111.453377 35.1837891,111.106935 C35.1837891,109.818828 36.2149794,108.661375 37.8539627,107.864263 C37.6562882,107.559687 37.5089429,107.231931 37.414783,106.885573 C37.2726474,106.362741 37.3811629,104.472563 38.6408961,102.742172 C39.9006293,101.01178 40.9651314,100.798098 41.6176185,101.112485 C42.0811473,101.335826 41.3920433,102.083974 41.6176184,102.742172 C41.8277651,103.355351 42.9513346,104.149765 43.3857544,104.149765 C46.6834309,104.149765 49.0229301,104.41332 49.0229301,106.61922 C49.0229301,107.100665 48.9114891,107.540183 48.7029679,107.933142 C50.2614177,108.727317 51.2347878,109.855462 51.2347878,111.106935 C51.2347878,111.477967 51.1492303,111.838159 50.9882342,112.182021 C52.1920339,113.044432 52.9040916,114.112298 52.9040916,115.268543 C52.9040916,118.132693 48.5348353,120.454545 43.1450844,120.454545 C37.7553336,120.454545 33.3860772,118.132693 33.3860772,115.268543 C33.3860772,114.081451 34.1366357,112.987516 35.3993288,112.113438 Z M2.0132516,112.113438 C1.87230417,111.790367 1.79771185,111.453377 1.79771185,111.106935 C1.79771185,109.818828 2.82890211,108.661375 4.46788544,107.864263 C4.27021092,107.559687 4.12286566,107.231931 4.02870571,106.885573 C3.88657013,106.362741 3.99508565,104.472563 5.25481884,102.742172 C6.51455202,101.01178 7.57905418,100.798098 8.23154127,101.112485 C8.69507007,101.335826 8.00596606,102.083974 8.2315412,102.742172 C8.44168787,103.355351 9.56525736,104.149765 9.99967715,104.149765 C13.2973537,104.149765 15.6368528,104.41332 15.6368528,106.61922 C15.6368528,107.100665 15.5254118,107.540183 15.3168907,107.933142 C16.8753404,108.727317 17.8487105,109.855462 17.8487105,111.106935 C17.8487105,111.477967 17.7631531,111.838159 17.602157,112.182021 C18.8059566,113.044432 19.5180144,114.112298 19.5180144,115.268543 C19.5180144,118.132693 15.148758,120.454545 9.75900719,120.454545 C4.36925635,120.454545 0,118.132693 0,115.268543 C0,114.081451 0.7505585,112.987516 2.0132516,112.113438 Z" id="Combined-Shape"></path>
                    <path d="M337.029696,162.113438 C336.888749,161.790367 336.814156,161.453377 336.814156,161.106935 C336.814156,159.818828 337.845346,158.661375 339.48433,157.864263 C339.286655,157.559687 339.13931,157.231931 339.04515,156.885573 C338.903014,156.362741 339.01153,154.472563 340.271263,152.742172 C341.530996,151.01178 342.595499,150.798098 343.247986,151.112485 C343.711514,151.335826 343.02241,152.083974 343.247986,152.742172 C343.458132,153.355351 344.581702,154.149765 345.016122,154.149765 C348.313798,154.149765 350.653297,154.41332 350.653297,156.61922 C350.653297,157.100665 350.541856,157.540183 350.333335,157.933142 C351.891785,158.727317 352.865155,159.855462 352.865155,161.106935 C352.865155,161.477967 352.779597,161.838159 352.618601,162.182021 C353.822401,163.044432 354.534459,164.112298 354.534459,165.268543 C354.534459,168.132693 350.165202,170.454545 344.775452,170.454545 C339.385701,170.454545 335.016444,168.132693 335.016444,165.268543 C335.016444,164.081451 335.767003,162.987516 337.029696,162.113438 Z M303.643619,162.113438 C303.502671,161.790367 303.428079,161.453377 303.428079,161.106935 C303.428079,159.818828 304.459269,158.661375 306.098253,157.864263 C305.900578,157.559687 305.753233,157.231931 305.659073,156.885573 C305.516937,156.362741 305.625453,154.472563 306.885186,152.742172 C308.144919,151.01178 309.209421,150.798098 309.861908,151.112485 C310.325437,151.335826 309.636333,152.083974 309.861908,152.742172 C310.072055,153.355351 311.195624,154.149765 311.630044,154.149765 C314.927721,154.149765 317.26722,154.41332 317.26722,156.61922 C317.26722,157.100665 317.155779,157.540183 316.947258,157.933142 C318.505708,158.727317 319.479078,159.855462 319.479078,161.106935 C319.479078,161.477967 319.39352,161.838159 319.232524,162.182021 C320.436324,163.044432 321.148382,164.112298 321.148382,165.268543 C321.148382,168.132693 316.779125,170.454545 311.389374,170.454545 C305.999623,170.454545 301.630367,168.132693 301.630367,165.268543 C301.630367,164.081451 302.380926,162.987516 303.643619,162.113438 Z M270.257541,162.113438 C270.116594,161.790367 270.042002,161.453377 270.042002,161.106935 C270.042002,159.818828 271.073192,158.661375 272.712175,157.864263 C272.514501,157.559687 272.367156,157.231931 272.272996,156.885573 C272.13086,156.362741 272.239376,154.472563 273.499109,152.742172 C274.758842,151.01178 275.823344,150.798098 276.475831,151.112485 C276.93936,151.335826 276.250256,152.083974 276.475831,152.742172 C276.685978,153.355351 277.809547,154.149765 278.243967,154.149765 C281.541644,154.149765 283.881143,154.41332 283.881143,156.61922 C283.881143,157.100665 283.769702,157.540183 283.561181,157.933142 C285.11963,158.727317 286.093,159.855462 286.093,161.106935 C286.093,161.477967 286.007443,161.838159 285.846447,162.182021 C287.050246,163.044432 287.762304,164.112298 287.762304,165.268543 C287.762304,168.132693 283.393048,170.454545 278.003297,170.454545 C272.613546,170.454545 268.24429,168.132693 268.24429,165.268543 C268.24429,164.081451 268.994848,162.987516 270.257541,162.113438 Z M236.871464,162.113438 C236.730517,161.790367 236.655924,161.453377 236.655924,161.106935 C236.655924,159.818828 237.687115,158.661375 239.326098,157.864263 C239.128424,157.559687 238.981078,157.231931 238.886918,156.885573 C238.744783,156.362741 238.853298,154.472563 240.113031,152.742172 C241.372765,151.01178 242.437267,150.798098 243.089754,151.112485 C243.553283,151.335826 242.864179,152.083974 243.089754,152.742172 C243.2999,153.355351 244.42347,154.149765 244.85789,154.149765 C248.155566,154.149765 250.495065,154.41332 250.495065,156.61922 C250.495065,157.100665 250.383624,157.540183 250.175103,157.933142 C251.733553,158.727317 252.706923,159.855462 252.706923,161.106935 C252.706923,161.477967 252.621366,161.838159 252.46037,162.182021 C253.664169,163.044432 254.376227,164.112298 254.376227,165.268543 C254.376227,168.132693 250.006971,170.454545 244.61722,170.454545 C239.227469,170.454545 234.858213,168.132693 234.858213,165.268543 C234.858213,164.081451 235.608771,162.987516 236.871464,162.113438 Z M203.485387,162.113438 C203.34444,161.790367 203.269847,161.453377 203.269847,161.106935 C203.269847,159.818828 204.301037,158.661375 205.940021,157.864263 C205.742346,157.559687 205.595001,157.231931 205.500841,156.885573 C205.358706,156.362741 205.467221,154.472563 206.726954,152.742172 C207.986687,151.01178 209.05119,150.798098 209.703677,151.112485 C210.167205,151.335826 209.478101,152.083974 209.703677,152.742172 C209.913823,153.355351 211.037393,154.149765 211.471813,154.149765 C214.769489,154.149765 217.108988,154.41332 217.108988,156.61922 C217.108988,157.100665 216.997547,157.540183 216.789026,157.933142 C218.347476,158.727317 219.320846,159.855462 219.320846,161.106935 C219.320846,161.477967 219.235288,161.838159 219.074292,162.182021 C220.278092,163.044432 220.99015,164.112298 220.99015,165.268543 C220.99015,168.132693 216.620893,170.454545 211.231143,170.454545 C205.841392,170.454545 201.472135,168.132693 201.472135,165.268543 C201.472135,164.081451 202.222694,162.987516 203.485387,162.113438 Z M168.943638,162.113438 C168.80269,161.790367 168.728098,161.453377 168.728098,161.106935 C168.728098,159.818828 169.759288,158.661375 171.398272,157.864263 C171.200597,157.559687 171.053252,157.231931 170.959092,156.885573 C170.816956,156.362741 170.925472,154.472563 172.185205,152.742172 C173.444938,151.01178 174.50944,150.798098 175.161927,151.112485 C175.625456,151.335826 174.936352,152.083974 175.161927,152.742172 C175.372074,153.355351 176.495644,154.149765 176.930063,154.149765 C180.22774,154.149765 182.567239,154.41332 182.567239,156.61922 C182.567239,157.100665 182.455798,157.540183 182.247277,157.933142 C183.805727,158.727317 184.779097,159.855462 184.779097,161.106935 C184.779097,161.477967 184.693539,161.838159 184.532543,162.182021 C185.736343,163.044432 186.448401,164.112298 186.448401,165.268543 C186.448401,168.132693 182.079144,170.454545 176.689393,170.454545 C171.299643,170.454545 166.930386,168.132693 166.930386,165.268543 C166.930386,164.081451 167.680945,162.987516 168.943638,162.113438 Z M135.557561,162.113438 C135.416613,161.790367 135.342021,161.453377 135.342021,161.106935 C135.342021,159.818828 136.373211,158.661375 138.012194,157.864263 C137.81452,157.559687 137.667175,157.231931 137.573015,156.885573 C137.430879,156.362741 137.539395,154.472563 138.799128,152.742172 C140.058861,151.01178 141.123363,150.798098 141.77585,151.112485 C142.239379,151.335826 141.550275,152.083974 141.77585,152.742172 C141.985997,153.355351 143.109566,154.149765 143.543986,154.149765 C146.841663,154.149765 149.181162,154.41332 149.181162,156.61922 C149.181162,157.100665 149.069721,157.540183 148.8612,157.933142 C150.419649,158.727317 151.39302,159.855462 151.39302,161.106935 C151.39302,161.477967 151.307462,161.838159 151.146466,162.182021 C152.350266,163.044432 153.062323,164.112298 153.062323,165.268543 C153.062323,168.132693 148.693067,170.454545 143.303316,170.454545 C137.913565,170.454545 133.544309,168.132693 133.544309,165.268543 C133.544309,164.081451 134.294867,162.987516 135.557561,162.113438 Z M102.171483,162.113438 C102.030536,161.790367 101.955944,161.453377 101.955944,161.106935 C101.955944,159.818828 102.987134,158.661375 104.626117,157.864263 C104.428443,157.559687 104.281097,157.231931 104.186937,156.885573 C104.044802,156.362741 104.153317,154.472563 105.413051,152.742172 C106.672784,151.01178 107.737286,150.798098 108.389773,151.112485 C108.853302,151.335826 108.164198,152.083974 108.389773,152.742172 C108.59992,153.355351 109.723489,154.149765 110.157909,154.149765 C113.455585,154.149765 115.795085,154.41332 115.795085,156.61922 C115.795085,157.100665 115.683644,157.540183 115.475122,157.933142 C117.033572,158.727317 118.006942,159.855462 118.006942,161.106935 C118.006942,161.477967 117.921385,161.838159 117.760389,162.182021 C118.964188,163.044432 119.676246,164.112298 119.676246,165.268543 C119.676246,168.132693 115.30699,170.454545 109.917239,170.454545 C104.527488,170.454545 100.158232,168.132693 100.158232,165.268543 C100.158232,164.081451 100.90879,162.987516 102.171483,162.113438 Z M68.7854061,162.113438 C68.6444587,161.790367 68.5698663,161.453377 68.5698663,161.106935 C68.5698663,159.818828 69.6010566,158.661375 71.2400399,157.864263 C71.0423654,157.559687 70.8950202,157.231931 70.8008602,156.885573 C70.6587246,156.362741 70.7672401,154.472563 72.0269733,152.742172 C73.2867065,151.01178 74.3512087,150.798098 75.0036958,151.112485 C75.4672246,151.335826 74.7781206,152.083974 75.0036957,152.742172 C75.2138424,153.355351 76.3374119,154.149765 76.7718316,154.149765 C80.0695081,154.149765 82.4090073,154.41332 82.4090073,156.61922 C82.4090073,157.100665 82.2975663,157.540183 82.0890452,157.933142 C83.6474949,158.727317 84.620865,159.855462 84.620865,161.106935 C84.620865,161.477967 84.5353076,161.838159 84.3743115,162.182021 C85.5781111,163.044432 86.2901689,164.112298 86.2901689,165.268543 C86.2901689,168.132693 81.9209125,170.454545 76.5311617,170.454545 C71.1414108,170.454545 66.7721545,168.132693 66.7721545,165.268543 C66.7721545,164.081451 67.522713,162.987516 68.7854061,162.113438 Z M35.3993288,162.113438 C35.2583814,161.790367 35.1837891,161.453377 35.1837891,161.106935 C35.1837891,159.818828 36.2149794,158.661375 37.8539627,157.864263 C37.6562882,157.559687 37.5089429,157.231931 37.414783,156.885573 C37.2726474,156.362741 37.3811629,154.472563 38.6408961,152.742172 C39.9006293,151.01178 40.9651314,150.798098 41.6176185,151.112485 C42.0811473,151.335826 41.3920433,152.083974 41.6176184,152.742172 C41.8277651,153.355351 42.9513346,154.149765 43.3857544,154.149765 C46.6834309,154.149765 49.0229301,154.41332 49.0229301,156.61922 C49.0229301,157.100665 48.9114891,157.540183 48.7029679,157.933142 C50.2614177,158.727317 51.2347878,159.855462 51.2347878,161.106935 C51.2347878,161.477967 51.1492303,161.838159 50.9882342,162.182021 C52.1920339,163.044432 52.9040916,164.112298 52.9040916,165.268543 C52.9040916,168.132693 48.5348353,170.454545 43.1450844,170.454545 C37.7553336,170.454545 33.3860772,168.132693 33.3860772,165.268543 C33.3860772,164.081451 34.1366357,162.987516 35.3993288,162.113438 Z M2.0132516,162.113438 C1.87230417,161.790367 1.79771185,161.453377 1.79771185,161.106935 C1.79771185,159.818828 2.82890211,158.661375 4.46788544,157.864263 C4.27021092,157.559687 4.12286566,157.231931 4.02870571,156.885573 C3.88657013,156.362741 3.99508565,154.472563 5.25481884,152.742172 C6.51455202,151.01178 7.57905418,150.798098 8.23154127,151.112485 C8.69507007,151.335826 8.00596606,152.083974 8.2315412,152.742172 C8.44168787,153.355351 9.56525736,154.149765 9.99967715,154.149765 C13.2973537,154.149765 15.6368528,154.41332 15.6368528,156.61922 C15.6368528,157.100665 15.5254118,157.540183 15.3168907,157.933142 C16.8753404,158.727317 17.8487105,159.855462 17.8487105,161.106935 C17.8487105,161.477967 17.7631531,161.838159 17.602157,162.182021 C18.8059566,163.044432 19.5180144,164.112298 19.5180144,165.268543 C19.5180144,168.132693 15.148758,170.454545 9.75900719,170.454545 C4.36925635,170.454545 0,168.132693 0,165.268543 C0,164.081451 0.7505585,162.987516 2.0132516,162.113438 Z" id="Combined-Shape"></path>
                </g>
            </g>
        </g>
    </g>
</svg>