<?xml version="1.0" encoding="UTF-8" standalone="no"?>
<svg width="23px" height="24px" viewBox="0 0 23 24" version="1.1" xmlns="http://www.w3.org/2000/svg" xmlns:xlink="http://www.w3.org/1999/xlink">
    <!-- Generator: Sketch 39.1 (31720) - http://www.bohemiancoding.com/sketch -->
    <title>Combined Shape</title>
    <desc>Created with Sketch.</desc>
    <defs></defs>
    <g id="Page-1" stroke="none" stroke-width="1" fill="none" fill-rule="evenodd">
        <g id="Desktop-Copy" transform="translate(-675.000000, -542.000000)" fill="#000000">
            <g id="Group" transform="translate(998.797089, 467.311711) rotate(-15.000000) translate(-998.797089, -467.311711) translate(662.297089, 448.811711)">
                <path d="M2.37241278,22.1066311 C2.20632054,21.7259251 2.11842105,21.3288162 2.11842105,20.9205701 C2.11842105,19.402666 3.33357416,18.0387258 5.26494976,17.0994098 C5.03201038,16.7404979 4.85837895,16.3542705 4.747421,15.9461227 C4.57992863,15.3300186 4.70780317,13.1026356 6.19227094,11.0635449 C7.6767387,9.02445411 8.93114652,8.77265173 9.70003636,9.14312397 C10.246258,9.40630857 9.43421886,10.287926 9.70003627,11.0635448 C9.94767281,11.7861143 11.2716855,12.7222503 11.7836051,12.7222503 C15.6695824,12.7222503 18.4264448,13.0328231 18.4264448,15.6322528 C18.4264448,16.1995872 18.2951229,16.7175145 18.0494019,17.1805765 C19.8858768,18.1164314 21.0328947,19.4458353 21.0328947,20.9205701 C21.0328947,21.3577939 20.932074,21.7822434 20.7423564,22.1874501 C22.1609122,23.2037134 23,24.4620854 23,25.8246021 C23,29.1997127 17.8512746,31.9357805 11.5,31.9357805 C5.14872538,31.9357805 -6.25277607e-13,29.1997127 -6.25277607e-13,25.8246021 C-6.25277607e-13,24.4257348 0.884457054,23.1366434 2.37241278,22.1066311 Z" id="Combined-Shape"></path>
            </g>
        </g>
    </g>
</svg>